<?xml version="1.0" encoding="utf-8"?>
<!-- Generator: Adobe Illustrator 19.0.0, SVG Export Plug-In . SVG Version: 6.00 Build 0)  -->
<svg version="1.1" id="Capa_1" xmlns="http://www.w3.org/2000/svg" xmlns:xlink="http://www.w3.org/1999/xlink" x="0px" y="0px"
	 viewBox="0 0 595.3 243.6" style="enable-background:new 0 0 595.3 243.6;" xml:space="preserve">
<style type="text/css">
	.st0{fill:#322F50;}
</style>
<g id="XMLID_13_">
	<g id="XMLID_1_">
		<g id="XMLID_226_">
			<path id="XMLID_248_" class="st0" d="M52.6,199.4c-0.6,0-1.5-0.1-2.7-0.3c-0.9-1-1.8-2.4-2.5-4.1c-0.7-1.7-1.3-3.6-1.7-5.6
				c-0.4-2-0.6-4-0.5-5.9c0-2,0.4-3.7,1-5.3c0-0.1,0.3-0.8,0.8-2.1c0.6-1.4,1.3-3.1,2.2-5.2c0.9-2.1,1.9-4.4,3-7
				c1.1-2.6,2.2-5.1,3.4-7.6c1.1-2.5,2.2-4.7,3.2-6.8c1-2,1.9-3.6,2.7-4.7c0.5-0.8,1-1.6,1.5-2.4c0.4-0.8,0.9-1.5,1.3-2.1
				c0.6-1.1,1.3-2.1,1.8-3c0.6-0.9,1.2-1.7,1.9-2.5c0.7-0.7,1.4-1.4,2.3-2c0.8-0.6,1.8-1,3-1.5c0.7,0.3,1.3,0.6,1.9,0.9
				c0.5,0.3,1,0.7,1.4,1.2l0.3,1.2c0.1,0.4,0.3,0.7,0.6,0.8c0.3,0.1,0.5,0.2,0.7,0.2c0.8,0.2,1.4,0.4,2,0.6c0.6,0.2,1.2,0.3,1.8,0.4
				c0.2,0.4,0.5,0.7,0.7,1.1c0.2,0.4,0.4,0.7,0.7,1c1.2,1.7,2.2,3.4,2.9,5c0.8,1.6,0.8,3.3,0,5.2l0.1,1c0.3,0.4,0.4,0.8,0.4,1.2
				c0,0.4-0.1,0.9-0.2,1.5c-0.1,0.5-0.1,1-0.1,1.6c0,0.6,0,1.2,0.2,1.8l0.6,0.7c0.9,0.5,1.9,0.7,2.7,0.7c1.2,0,2.2-0.3,3.2-0.8
				c0.9-0.5,1.8-1.1,2.7-1.6c0.6-0.5,1.3-0.9,1.8-1.2c0.6-0.3,1.1-0.5,1.6-0.6c1.2-1.2,2.4-2.2,3.4-3.1c1-0.9,2.1-1.8,3.2-2.8
				c2.1-1.7,4.2-3.6,6.2-5.5c2-2,3.6-4.4,4.8-7.4c0.6-0.4,1.4-0.6,2.2-0.6c0.8,0,1.7,0.2,2.5,0.5c0.8,0.3,1.7,0.7,2.5,1.1
				c0.2,0.1,0.3,0.2,0.5,0.3c0.1,0.1,0.3,0.1,0.5,0.3c0,0.7,0.3,1.2,0.8,1.8c0.3,0.2,0.5,0.4,0.6,0.4c0.1,0.1,0.2,0.1,0.4,0.2
				c0.5,0.3,0.9,0.6,1.2,0.8c0.3,0.2,0.6,0.6,0.8,1c0.5,1.6,1.4,2.8,2.7,3.7c-0.1,0.6-0.1,1.3,0.1,1.9c0.2,0.6,0.4,1.2,0.6,1.8
				c0.1,0.2,0.2,0.5,0.3,0.7c0.1,0.2,0.1,0.5,0.3,0.8l-2-0.2l0.3,2c0.2,1,0.1,2.1-0.2,3.4c-0.3,1.2-0.7,2.2-1.1,2.9
				c0.1,1.8,0.2,3.2,0.2,4.2s-0.1,2-0.2,2.9c-0.1,0.9-0.3,1.7-0.6,2.5c-0.3,0.8-0.6,1.6-1,2.5c0.2,4.5-0.3,8.6-1.6,12.3
				c-1.3,3.7-2.6,7.2-4.1,10.5c-0.2,0.4-0.4,0.8-0.5,1.2c-0.2,0.4-0.3,0.7-0.4,1.1c-0.7,0.2-1.2,0.4-1.8,0.6c-0.5,0.2-1,0.5-1.5,0.8
				c-0.7,0.4-1.3,0.8-2,1c-0.7,0.3-1.3,0.4-2,0.4c-2.8-2.1-4.3-5.6-4.4-10.7c-0.1-5.1,1-11.6,3.2-19.4c0.4-0.3,0.6-0.7,0.5-1.3v-1
				l-0.9-0.1c-0.3,0-0.6,0-0.8,0.1c-0.2,0.1-0.4,0.3-0.5,0.8c-1.9,1.4-3.9,2.8-6.2,4.2c-2.2,1.4-4.5,2.8-6.9,4
				c-2.4,1.2-4.8,2.2-7.2,3c-2.5,0.8-4.8,1.2-7.1,1.2c-5.9,0-10.4-3-13.4-9l-0.8-1.6l-0.9,1.4c-0.2,0.3-0.5,0.9-0.9,1.7
				c-0.4,0.9-0.9,1.8-1.3,3c-0.4,1.1-0.8,2.3-1.2,3.5c-0.3,1.2-0.4,2.2-0.3,3.1c-0.7,0.6-1.4,1.4-2.1,2.2c-0.7,0.8-1.2,1.8-1.5,2.8
				c-0.1,0.3-0.1,0.6-0.1,0.8c0.1,0.3,0.1,0.5,0.3,0.8c-0.1,0.4-0.2,0.7-0.4,0.9c-0.2,0.2-0.4,0.4-0.6,0.5c-0.3,0.3-0.6,0.6-0.9,0.9
				c-0.3,0.3-0.6,0.7-0.8,1.1c-0.1,0.4-0.2,0.7-0.3,1.1c-0.1,0.4-0.1,0.7-0.2,1c0,0.6-0.1,1.1-0.3,1.3c-0.6,1.2-1.1,2.3-1.6,3.1
				c-0.4,0.8-0.9,1.4-1.3,1.8c-0.4,0.4-0.8,0.7-1.3,0.8C53.7,199.3,53.2,199.4,52.6,199.4z"/>
			<path id="XMLID_246_" class="st0" d="M130.5,199.2c-0.8-0.5-1.5-1.2-2-2s-0.9-1.7-1.2-2.7c-0.3-0.9-0.6-1.9-0.8-3
				c-0.2-1-0.4-2-0.7-3c0-0.8,0.2-1.4,0.5-1.8c0.4-0.4,0.7-0.8,1.2-1.1c1.4-0.1,2.7-0.2,3.8-0.4c1.1-0.2,2.2-0.4,3.3-0.5
				c1.1-0.2,2.1-0.3,3.2-0.5s2.2-0.2,3.5-0.2c0.9-1.8,1.7-3.6,2.5-5.3c0.8-1.7,1.5-3.3,2.2-4.8c0.4-1.5,0.8-2.9,1.4-4.1
				c0.6-1.3,1.1-2.5,1.6-3.6c0.5-1.2,1-2.3,1.4-3.5c0.4-1.2,0.7-2.4,0.8-3.7c0.7-2.1,1.3-4,1.9-5.7c0.6-1.7,1-3.8,1.3-6.3
				c-2.2,0.4-4,0.7-5.4,1c-1.4,0.3-2.3,0.6-2.9,0.9c-1.2-0.1-2.1-0.3-2.8-0.7c-0.7-0.4-1.2-0.9-1.6-1.5c-0.4-0.6-0.8-1.3-1.1-2
				c-0.3-0.8-0.7-1.6-1.1-2.4c0.2-0.5,0.3-1.3,0.2-2.3c-0.1-1-0.5-1.8-1.1-2.3c0.5-0.1,0.8-0.5,1.1-1.2c0.2-0.7,0.3-1.2,0.1-1.6
				c1-0.3,2.1-0.5,3.2-0.6c1.1-0.1,2.2-0.2,3.3-0.3c1.1-0.1,2.1-0.2,3.1-0.4c1-0.1,1.9-0.5,2.6-0.9c3.1-0.1,6.3-0.2,9.6-0.4
				c3.3-0.1,6.4-0.3,9.3-0.4c1.1,0.4,2.3,0.5,3.7,0.5c1.4,0,2.8,0.1,4.2,0.3c1.4,0.2,2.6,0.6,3.7,1.2c1.1,0.6,1.8,1.6,2.3,3.1
				c0.9,0.1,1.6,0.4,2,0.7c0.4,0.4,0.7,0.8,0.8,1.3c0.1,0.5,0.2,1.1,0.1,1.7c0,0.6,0,1.2,0,1.8c-0.9,0.7-2.1,1.3-3.6,1.7
				c-1.4,0.4-3,0.8-4.7,1.1c-1.7,0.3-3.5,0.4-5.4,0.5c-1.9,0.1-3.7,0.2-5.5,0.2c-0.3,2-0.8,4.2-1.6,6.9c-0.7,2.6-1.5,5.2-2.3,7.7
				c-0.8,2.5-1.4,4.8-2,6.7c-0.6,2-0.8,3.3-0.8,3.9c-0.6,1.4-1.1,2.5-1.5,3.5c-0.4,0.9-0.7,1.8-1.1,2.7c-0.3,0.8-0.7,1.6-1,2.4
				c-0.3,0.8-0.7,1.7-1.2,2.7h6c0.1,0.6,0.4,1.1,0.8,1.3c0.4,0.2,0.9,0.4,1.3,0.6c0.5,0.2,0.9,0.4,1.3,0.7c0.4,0.3,0.6,0.7,0.6,1.3
				c1.1,0.3,1.8,0.7,2.1,1.3c0.3,0.6,0.4,1.2,0.2,1.9c-0.1,0.7-0.4,1.4-0.9,2.1s-0.9,1.3-1.3,1.9c-0.5-0.1-1,0-1.5,0.4
				c-0.5,0.4-0.9,0.8-1.3,1.3c-1.7-0.2-3.4-0.3-5.1-0.1c-1.7,0.2-3.2,0.3-4.6,0.4c-0.3,0.1-0.4,0.2-0.4,0.5c0.1,0.3,0,0.5-0.2,0.6
				c-1.8-0.6-3.7-0.8-5.6-0.7c-1.9,0.1-3.9,0.4-5.9,0.8c-2,0.4-4,0.9-6.1,1.4C134.7,198.9,132.6,199.2,130.5,199.2z"/>
			<path id="XMLID_244_" class="st0" d="M181.8,190.5c-1.7-1.3-3.1-2.9-4.2-4.9c-1.1-2-2-4-2.6-6.2s-1-4.4-1.2-6.8
				c-0.2-2.3-0.3-4.6-0.2-6.7c0.5-1.6,1.2-3.1,2-4.4c0.8-1.3,1.6-2.6,2.6-3.8c0.9-1.2,1.9-2.4,3-3.5c1-1.1,2.1-2.2,3.1-3.3
				c0.4,0,0.7,0.1,1,0.3c0.2-0.6,0.6-1.2,1.1-1.7c0.5-0.5,1-0.9,1.5-1.3s1.1-0.8,1.6-1.2c0.5-0.4,1-0.8,1.3-1.4
				c1.5-0.4,2.8-0.9,3.9-1.5c1.2-0.6,2.3-1.4,3.3-2.1c1.1-0.8,2.2-1.5,3.3-2.1c1.1-0.6,2.4-1.2,3.9-1.5c0.5-0.6,1.2-1.1,2-1.5
				c0.8-0.4,1.6-0.8,2.4-1.2c0.8-0.4,1.6-0.7,2.3-1.2c0.7-0.4,1.3-1,1.8-1.7c0.4,0.5,0.9,0.6,1.5,0.5c0.6-0.1,1.2-0.3,1.8-0.5
				c0.4-0.1,0.6,0,0.9,0.2c0.2,0.2,0.5,0.4,0.7,0.6c0.2,0.2,0.4,0.3,0.5,0.4c0.1,0.1,0.3-0.1,0.5-0.5c0.5,0.1,0.6,0.3,0.4,0.6
				c-0.2,0.4-0.3,0.6-0.4,0.7c0.6-0.1,1.1,0,1.5,0.3c0.4,0.3,1,0.5,1.8,0.7c0.3,0.3,0.4,0.5,0.3,0.7c-0.1,0.2-0.2,0.5-0.3,0.9
				c2.1,0.6,3.5,1.7,4.1,3.1c0.6,1.4,0.6,2.8,0.2,4.3c-0.5,1.5-1.3,2.9-2.6,4.2c-1.3,1.3-2.7,2.1-4.2,2.5c-1.8,0.5-3.5,0.9-5.1,1.4
				c-1.6,0.5-3.1,1-4.5,1.6c-1.4,0.6-2.8,1.3-4.1,2.1c-1.3,0.8-2.4,1.7-3.3,2.8c-1.7,0.5-3.1,1.1-4.5,2c-1.3,0.8-2.6,1.7-3.7,2.7
				s-2.3,2.1-3.3,3.1c-1.1,1.1-2.1,2.2-3.2,3.2c0,1-0.2,1.8-0.5,2.3s-0.7,1.1-1.2,1.6c0.1,1.1,0.4,2.1,0.8,2.9
				c0.4,0.8,0.8,1.6,1.2,2.4c4.7,1.4,9.7,2.3,15,2.6c5.3,0.3,10.5,0.5,15.7,0.6c0.5,0.7,1.1,1.4,1.8,2c0.7,0.6,1.3,1.3,1.9,1.9
				c0.6,0.6,1,1.4,1.3,2.3c0.3,0.9,0.4,1.9,0.2,3.1c-1,1-2.1,2-3.3,2.9c-1.2,0.9-2.4,1.8-3.5,2.7c-0.5,0.1-1.2,0.1-1.9,0
				c-0.7-0.1-1.5-0.1-2.3-0.1c-0.8,0-1.6,0-2.4,0.1c-0.8,0.1-1.6,0.3-2.3,0.6c-3.7-0.1-7.5-0.6-11.4-1.4c-3.9-0.8-7.5-1.8-10.8-2.9
				c-0.7-0.8-1.3-1.5-2-2.2C183.9,191.2,183,190.8,181.8,190.5z"/>
			<path id="XMLID_241_" class="st0" d="M229.3,190.5c-0.3,0.1-0.6-0.2-0.8-0.7c-0.2-0.5-0.5-1-0.8-1.5h1c-0.4-1.3-0.5-2.5-0.3-3.6
				c0.2-1.1,0.5-2.2,0.8-3.2c0.3-1,0.5-2,0.8-3c0.2-1,0.1-2-0.3-3.1c0.3,0.2,0.5,0.1,0.7-0.2c0.1-0.3,0.3-0.7,0.4-1.2s0.1-1,0.1-1.6
				c0-0.6-0.1-1-0.1-1.4c0.8-1.8,1.4-3.7,1.8-5.7c0.4-2,0.8-3.9,1.2-5.8c0.4-1.9,0.8-3.8,1.2-5.6s1-3.5,1.7-5.1
				c0.8-0.1,1.7,0,2.6,0.3c0.9,0.3,1.5,0.7,1.8,1.2c1.8-1.4,3.5-3.1,4.9-5.1c1.4-2,2.9-4,4.3-5.9c1.4-1.9,3.1-3.6,4.9-5.1
				c1.8-1.5,4.1-2.4,6.8-2.7c1.4,1,3,2.1,4.8,3.2c1.8,1.2,3.2,2.6,4.3,4.3c0.5,0.3,0.9,0.6,1.4,0.9c0.4,0.3,0.9,0.6,1.4,0.9v1.3
				c0.8,0.8,1.5,1.7,2.1,2.7c0.6,1,1.1,2.1,1.5,3.3c0.4,1.2,0.9,2.3,1.3,3.5c0.4,1.2,0.9,2.3,1.4,3.3c-0.1,0.4-0.2,0.7-0.1,0.9
				c0,0.3,0.1,0.5,0.2,0.8c0.1,0.3,0.2,0.6,0.2,0.9c0.1,0.3,0.1,0.7,0.1,1.2c-0.2,3.1-1.3,5.7-3.1,7.6c-1.8,1.9-4,3.5-6.6,4.7
				s-5.3,2.2-8.2,3.1c-2.9,0.9-5.5,1.8-7.9,2.8c0,0.2,0.1,0.4,0.4,0.4c0.3,0,0.3,0.2,0.2,0.5c1.8,1.1,3.1,1.9,4.1,2.6
				c1,0.6,1.9,1.2,2.7,1.6c0.9,0.4,1.8,0.8,2.8,1.1c1,0.3,2.5,0.6,4.3,1.1c1.8,0.4,3.3,0.8,4.3,1c1,0.3,2,0.5,2.8,0.6
				c0.8,0.1,1.7,0.3,2.7,0.4c0.9,0.1,2.2,0.3,3.8,0.4c0.6,0.6,1.2,1.4,1.6,2.3c0.4,0.9,0.7,1.8,0.9,2.7c0.2,0.9,0.2,1.7,0.1,2.5
				c-0.1,0.8-0.3,1.4-0.8,1.9c0.1,0.2,0.2,0.3,0.5,0.3s0.5,0,0.8,0c-0.4,0.3-0.8,0.6-1.1,1.1c-0.3,0.4-0.6,0.8-0.9,1.2
				c-0.3,0.4-0.6,0.8-1,1.2c-0.4,0.4-0.9,0.6-1.5,0.6c-2.1,0.8-4.8,0.9-8.2,0.1c-3.3-0.8-7.5-2.1-12.7-4.1c-2.5-0.9-4.6-1.8-6.2-2.6
				c-1.6-0.8-3-1.5-4.2-2.3c-1.2-0.7-2.3-1.5-3.3-2.4c-1-0.9-2.2-1.9-3.5-3.1c-0.2,0.1-0.3,0.2-0.3,0.4c0,0.2-0.1,0.3-0.3,0.4
				c-0.3,2.4-0.8,4.3-1.4,5.8s-1.5,3-2.7,4.5c-0.9-0.2-1.6-0.1-1.9,0.3c-0.3,0.4-0.7,0.7-1.2,1c-0.6,0.1-1,0.1-1.3,0
				c-0.3-0.1-0.6-0.3-0.8-0.5c-0.2-0.2-0.5-0.4-0.8-0.5c-0.3-0.2-0.8-0.2-1.4-0.2c-0.2-0.5-0.4-1-0.5-1.6c-0.2-0.5-0.7-0.7-1.4-0.7
				c0.2-0.5,0.2-1,0.2-1.4c-0.1-0.4-0.1-0.7-0.3-1.1c-0.1-0.3-0.2-0.7-0.3-1C229,191.4,229.1,191,229.3,190.5z M258.9,150
				c-0.8,1.1-1.6,2.1-2.6,3.1c-0.9,0.9-1.9,1.9-2.8,2.8c-0.9,1-1.7,2-2.4,3.2s-1.2,2.5-1.5,4.1c2.5-0.3,5.1-1,7.8-2.1
				c2.7-1.1,5.3-2.1,7.7-3.1c-0.3-2.2-1.1-3.9-2.3-5.3S260.2,150.5,258.9,150z"/>
			<path id="XMLID_237_" class="st0" d="M304.6,198.5c-2.6,0.4-5,0.2-7.1-0.4c-2.1-0.6-4-1.5-5.7-2.7c-1.7-1.2-3.1-2.7-4.3-4.4
				c-1.2-1.7-2.2-3.5-3-5.5c-0.5-4-0.4-7.7,0.4-10.9c0.8-3.3,2-6.3,3.6-9.1c1.6-2.8,3.4-5.4,5.5-7.8s4-4.8,5.9-7
				c0.4,0.2,0.8,0.2,1,0c0.3-0.2,0.5-0.4,0.7-0.7c0.2-0.3,0.4-0.6,0.7-0.9c0.3-0.3,0.6-0.5,0.9-0.6c0.2-0.5,0.5-1,0.9-1.3
				c0.4-0.4,0.8-0.7,1.2-1c0.4-0.3,0.9-0.7,1.2-1c0.4-0.4,0.7-0.8,1-1.3c0.6-0.1,1.1-0.3,1.6-0.6c0.4-0.3,0.9-0.6,1.2-1
				c0.4-0.4,0.8-0.7,1.2-1c0.4-0.3,0.9-0.5,1.5-0.7v-1.2c1.3-0.6,2.2-1.2,2.8-2c0.6-0.7,1.3-1.6,2.1-2.7c0.6-0.1,1.2-0.1,1.6-0.1
				c0.4,0,1-0.1,1.8-0.2c0.5-1,1-1.7,1.5-2.2c0.5-0.5,1.2-1,2-1.6c0.9,0.5,1.8,0.8,2.8,0.8s1.9,0.5,2.7,1.4c0.1,0.7,0.3,1.3,0.6,1.6
				c0.4,0.4,0.7,0.7,1.2,1.1c0.4,0.3,0.8,0.7,1.2,1c0.4,0.4,0.7,0.9,0.8,1.5c0.3,0,0.5-0.1,0.6-0.2c0.1-0.1,0.3-0.1,0.6-0.1
				c0.1,0.5,0.2,0.9,0.4,1.2s0.2,0.6,0.4,0.8c0.1,0.2,0.3,0.5,0.4,0.8s0.3,0.6,0.4,1.1c-0.3,0.7-0.6,1.5-0.8,2.3
				c-0.2,0.8-0.7,1.3-1.4,1.6c0,0.5,0.2,0.7,0.5,0.8c0.4,0,0.6,0.2,0.6,0.7c0.1,0.5,0,1-0.3,1.3c1.7,2.8,3.2,5.7,4.5,8.7
				c1.4,3,2.9,6,4.6,8.7c-0.1,0.8-0.1,1.6,0.1,2.4c0.2,0.8,0.5,1.6,0.8,2.3c0.3,0.8,0.6,1.5,0.9,2.3c0.3,0.8,0.5,1.5,0.6,2.3
				c0.1,1,0.1,2.1,0,3.2c-0.1,1.2-0.4,2.3-0.7,3.3c-0.4,1.1-0.8,2.1-1.4,3c-0.6,0.9-1.3,1.6-2,2.1c-0.9,1.2-2.1,2.1-3.5,2.9
				s-2.7,1.6-3.9,2.6c-0.8,0.5-1.7,0.8-2.7,1c-0.9,0.2-1.9,0.4-2.9,0.7c-0.8,0.5-1.7,0.9-2.7,1.4c-1.1,0.4-2.2,0.8-3.3,1.2
				c-1.1,0.4-2.2,0.6-3.4,0.8c-1.1,0.2-2.1,0.2-3,0.1c-2.1,0.8-4.2,1.3-6.2,1.6C309.6,199.3,307.3,199.1,304.6,198.5z M305.7,166.3
				c-0.6,1.4-1.3,2.6-2.1,3.7c-0.8,1.1-1.6,2.2-2.3,3.3c-0.8,1.1-1.4,2.3-2,3.6c-0.6,1.3-0.9,2.8-0.9,4.5c1.2,1,2.6,1.6,4.2,1.8
				c1.6,0.2,3.3,0.2,5,0.1c1.7-0.1,3.4-0.4,5.1-0.7c1.7-0.3,3.3-0.4,4.6-0.4c0-0.5,0.2-0.8,0.7-0.8c2.5-0.2,4.8-0.9,6.9-2.1
				c2.1-1.2,4.3-2.3,6.6-3.5c0.3-0.7,0.7-1.3,1.2-1.9c0.5-0.5,0.7-1.3,0.8-2.3c-0.3-0.5-0.5-1-0.6-1.3c-0.1-0.4-0.1-0.9-0.1-1.6
				c-1.5-2.1-2.9-4.4-4-7s-2.4-4.9-3.9-7.1c-0.1,0.3-0.4,0.6-0.7,0.9s-0.7,0.2-1.2-0.2c-0.2,0.6-0.4,1-0.8,1.2
				c-0.4,0.2-0.8,0.3-1.2,0.3s-0.9-0.1-1.3-0.3c-0.4-0.2-0.8-0.4-1.2-0.7c-2.1,1.7-4.1,3.3-6.2,4.8c-2,1.5-3.9,3.3-5.5,5.4
				c-0.3,0.2-0.5,0.2-0.5,0.2C306.3,166.1,306.1,166.1,305.7,166.3z M336.4,113.8c-0.5,0.1-1.3,0.5-2.3,1.2s-2.5,1.8-4.2,3.4
				c-0.9,0.8-2,1.7-3.2,2.9c-1.2,1.2-2.6,2.3-4,3.4c-1.4,1.1-2.9,2.1-4.5,2.9c-1.5,0.8-3,1.3-4.4,1.3c-0.4-0.4-0.8-0.8-1.2-1.2
				c-0.4-0.4-0.8-0.8-1-1.2c-0.3-0.4-0.4-0.9-0.5-1.3c-0.1-0.5,0.1-1,0.4-1.6c-0.8-1.2-1.1-2.2-1-2.8c0.1-0.6,0.4-1.2,0.9-1.7
				c0.5-0.5,1.1-0.9,1.7-1.3c0.6-0.4,1-1,1.3-1.9c1.4-1.5,2.9-3,4.5-4.6c1.6-1.6,3.1-3.1,4.6-4.7c0.6-0.1,1.2-0.4,1.7-0.8
				c0.6-0.4,1.1-0.9,1.6-1.5c0.5-0.5,1.1-1.1,1.6-1.6c0.6-0.6,1.2-1,1.8-1.4c0.1,0.4,0.5,0.7,1,1c0.6,0.3,1,0.4,1.3,0.2
				c0.1,0.7,0.4,1.3,1,1.9s1.1,1,1.6,1.3c0.4,0.8,0.7,1.6,1.1,2.3c0.4,0.7,0.6,1.3,0.8,2c0.2,0.7,0.2,1.3,0.2,2
				C337.1,112.4,336.9,113.1,336.4,113.8z"/>
			<path id="XMLID_235_" class="st0" d="M352.4,180.2c-1.8-1-3.1-2.4-4.1-4.3c-0.9-1.8-1.5-3.6-1.6-5.2c0.2-1.4,0.5-2.5,1.1-3.3
				c0.6-0.8,1.2-1.4,2-2s1.6-0.9,2.4-1.2c0.8-0.3,1.6-0.5,2.4-0.7l1.3,0.4c0.3,0.3,0.6,0.6,0.9,0.8s0.6,0.5,0.9,0.7
				c0.6-0.2,1-0.6,1.1-1.1c0.1-0.5,0.3-0.9,0.5-1.4c0.2-0.6,0.4-1.3,0.6-2s0.5-1.3,0.9-2c-0.1-0.5,0-1,0.1-1.4
				c0.1-0.4,0.2-0.8,0.4-1.1c-0.4-0.3-0.6-0.5-0.8-0.5c-0.1,0-0.4-0.1-0.8-0.2c-0.2,0-0.4,0-0.5,0s-0.4-0.1-0.6-0.1
				c-0.9-0.6-1.5-1.2-1.7-1.6c-0.3-0.4-0.5-0.9-0.8-1.4c-0.3-0.5-0.6-0.9-0.8-1.2c-0.2-0.4-0.5-0.7-0.8-1l-1.1-0.7l0.5-1.1
				c0.1-0.1,0.2-0.3,0.2-0.5s-0.1-0.5-0.4-0.9c-0.2-0.8-0.2-1.3-0.1-1.7l0.2-1.1c0.6-0.8,0.9-1.2,1-1.3l0.9-0.9
				c1.4-0.4,2.7-0.8,4.2-1.2c1.4-0.4,2.8-0.9,4.2-1.4c1.4-0.5,2.7-0.9,4.2-1.4c1.4-0.5,2.8-0.9,4.3-1.2c0.5-0.4,1-0.7,1.6-0.8
				s1.1-0.2,1.6-0.2c0.4,0,0.8,0,1.2-0.1c0.4-0.1,0.6-0.2,0.8-0.4c1-0.4,2-0.6,2.9-0.9c1.8-0.5,4.1-1,7-1.7c2.9-0.6,6.1-1.1,9.8-1.4
				l1.9-0.1c0.4,0.1,0.7,0.1,1.1,0c0.4,0,0.7,0,1.1,0c3.1,0,5.1,0.9,6.1,2.8c0.6,0.3,1.1,0.7,1.6,1.1c0.5,0.4,0.9,0.9,1.3,1.3
				c0.3,0.3,0.6,0.5,0.8,0.8s0.4,0.4,0.6,0.5l0.7,0.7c0.6,1.4,0.8,2.8,0.4,4.2c-0.4,0.7-0.7,1.1-1.2,1.2s-0.8,0.2-1.2,0.4l-1.2,0.6
				c-0.8-0.1-1.3-0.1-1.7-0.1c-0.4,0-0.8,0-1.3,0c-1.8,0-3.8,0.1-6.2,0.3s-4.7,0.5-7.1,0.9c-2.4,0.4-4.8,0.9-7.1,1.4
				c-2.3,0.6-4.3,1.2-6,1.8c-0.5,0.4-1.1,0.7-1.9,1c-0.2,0.1-0.4,0.2-0.8,0.4c0.1,0.5,0.1,0.9,0,1.4s-0.1,0.9-0.3,1.3
				c-0.1,0.3-0.1,0.6-0.1,0.9c0,0.3-0.1,0.7-0.1,1c-1.2,1.5-1.8,3.2-1.8,5.2l-0.4,0.9c-0.2,0.2-0.4,0.6-0.6,1
				c-0.1,0.4-0.2,0.9,0,1.4l0.4,1.1c1.2-0.1,2.3-0.2,3.5-0.4s2.4-0.3,3.7-0.5c1.7-0.3,3.3-0.5,5-0.8c1.7-0.2,3.4-0.3,5.3-0.3h3.5
				l-0.8,0.8l1,0.1l-0.5,1.4c0.4,0.2,0.7,0.3,0.9,0.4c0.2,0.1,0.4,0.2,0.6,0.3l0.6,0.9c0.3,0.2,0.6,0.5,0.8,0.8
				c0.2,0.4,0.4,0.9,0.4,1.6l-0.3,0.9l-4.2,5.3l-0.5,0.7l-0.9-0.3c-1.1-0.1-2.2,0.1-3.2,0.4c-0.5,0.1-1,0.2-1.5,0.4
				c-0.5,0.1-1.1,0.2-1.6,0.2c-1.4,0.2-2.6,0.4-3.5,0.6c-0.9,0.1-1.9,0.3-2.8,0.4c-1.3,0.2-2.6,0.5-3.8,0.7
				c-1.2,0.2-2.3,0.5-3.4,0.9c-0.6,0.1-1,0.1-1.2,0c-0.1,0-0.2,0-0.4,0c-0.6,0-1.2,0.1-1.8,0.3c-0.6,0.2-1.2,0.4-1.7,0.5
				c-0.4,0.3-0.6,0.6-0.7,0.9c-0.1,0.3-0.2,0.7-0.4,1c-0.1,0.4-0.3,0.8-0.5,1.2c-0.2,0.4-0.5,0.8-0.8,1.2l0.1,1.6
				c-0.5,0.1-0.8,0.2-0.8,0.2s0,0-0.1,0c0,0.5-0.1,0.9-0.2,1.3c-0.1,0.4-0.3,0.8-0.4,1.2c-0.1,0.2-0.2,0.4-0.3,0.6
				c-0.1,0.2-0.1,0.4-0.1,0.5c0.6,1.1,0.7,2.3,0.4,3.6c-0.2,1.1-0.7,2.1-1.3,3c-0.6,0.9-1.4,1.5-2.3,2c-0.9,0.1-1.6,0.1-2.1-0.1
				c-0.4-0.2-0.9-0.4-1.4-0.5c-0.3-0.1-0.6-0.2-0.9-0.3c-0.3-0.1-0.6-0.2-0.9-0.2l-1.1-0.9c-0.2-0.4-0.4-0.7-0.6-1
				c-0.2-0.3-0.5-0.7-0.7-1c-0.3-0.4-0.6-0.8-0.9-1.2c-0.3-0.4-0.6-0.9-0.8-1.4c-0.4-2.1-0.5-3.8-0.2-5.2c0.3-1.4,0.6-2.8,1.1-4.1
				c0.1-0.5,0.2-0.9,0.4-1.3S352.3,180.6,352.4,180.2z"/>
			<path id="XMLID_232_" class="st0" d="M419.8,198.5c-2.6,0.4-5,0.2-7.1-0.4c-2.1-0.6-4-1.5-5.7-2.7c-1.7-1.2-3.1-2.7-4.3-4.4
				c-1.2-1.7-2.2-3.5-3-5.5c-0.5-4-0.4-7.7,0.4-10.9c0.8-3.3,2-6.3,3.6-9.1c1.6-2.8,3.4-5.4,5.5-7.8s4-4.8,5.9-7
				c0.4,0.2,0.8,0.2,1,0c0.3-0.2,0.5-0.4,0.7-0.7c0.2-0.3,0.4-0.6,0.7-0.9c0.3-0.3,0.6-0.5,0.9-0.6c0.2-0.5,0.5-1,0.9-1.3
				c0.4-0.4,0.8-0.7,1.2-1c0.4-0.3,0.9-0.7,1.2-1c0.4-0.4,0.7-0.8,1-1.3c0.6-0.1,1.1-0.3,1.6-0.6c0.4-0.3,0.9-0.6,1.2-1
				c0.4-0.4,0.8-0.7,1.2-1s0.9-0.5,1.5-0.7v-1.2c1.3-0.6,2.2-1.2,2.8-2s1.3-1.6,2.1-2.7c0.6-0.1,1.2-0.1,1.6-0.1s1-0.1,1.8-0.2
				c0.5-1,1-1.7,1.5-2.2c0.5-0.5,1.2-1,2-1.6c0.9,0.5,1.8,0.8,2.8,0.8c1,0.1,1.9,0.5,2.7,1.4c0.1,0.7,0.3,1.3,0.6,1.6
				c0.4,0.4,0.7,0.7,1.2,1.1c0.4,0.3,0.8,0.7,1.2,1c0.4,0.4,0.7,0.9,0.8,1.5c0.3,0,0.5-0.1,0.6-0.2c0.1-0.1,0.3-0.1,0.6-0.1
				c0.1,0.5,0.2,0.9,0.4,1.2c0.1,0.3,0.2,0.6,0.4,0.8c0.1,0.2,0.3,0.5,0.4,0.8c0.1,0.3,0.3,0.6,0.4,1.1c-0.3,0.7-0.6,1.5-0.8,2.3
				c-0.2,0.8-0.7,1.3-1.4,1.6c0,0.5,0.2,0.7,0.5,0.8c0.4,0,0.6,0.2,0.6,0.7c0.1,0.5,0,1-0.3,1.3c1.7,2.8,3.2,5.7,4.5,8.7
				c1.4,3,2.9,6,4.6,8.7c-0.1,0.8-0.1,1.6,0.1,2.4c0.2,0.8,0.5,1.6,0.8,2.3c0.3,0.8,0.6,1.5,0.9,2.3c0.3,0.8,0.5,1.5,0.6,2.3
				c0.1,1,0.1,2.1,0,3.2c-0.1,1.2-0.4,2.3-0.7,3.3c-0.4,1.1-0.8,2.1-1.4,3c-0.6,0.9-1.3,1.6-2,2.1c-0.9,1.2-2.1,2.1-3.5,2.9
				c-1.4,0.7-2.7,1.6-3.9,2.6c-0.8,0.5-1.7,0.8-2.7,1c-0.9,0.2-1.9,0.4-2.9,0.7c-0.8,0.5-1.7,0.9-2.7,1.4c-1.1,0.4-2.2,0.8-3.3,1.2
				c-1.1,0.4-2.2,0.6-3.4,0.8c-1.1,0.2-2.1,0.2-3,0.1c-2.1,0.8-4.2,1.3-6.2,1.6C424.9,199.3,422.5,199.1,419.8,198.5z M420.9,166.3
				c-0.6,1.4-1.3,2.6-2.1,3.7c-0.8,1.1-1.6,2.2-2.3,3.3c-0.8,1.1-1.4,2.3-2,3.6c-0.6,1.3-0.9,2.8-0.9,4.5c1.2,1,2.6,1.6,4.2,1.8
				c1.6,0.2,3.3,0.2,5,0.1c1.7-0.1,3.4-0.4,5.1-0.7c1.7-0.3,3.3-0.4,4.6-0.4c0-0.5,0.2-0.8,0.7-0.8c2.5-0.2,4.8-0.9,6.9-2.1
				s4.3-2.3,6.6-3.5c0.3-0.7,0.7-1.3,1.2-1.9c0.5-0.5,0.7-1.3,0.8-2.3c-0.3-0.5-0.5-1-0.6-1.3c-0.1-0.4-0.1-0.9-0.1-1.6
				c-1.5-2.1-2.9-4.4-4-7c-1.1-2.5-2.4-4.9-3.9-7.1c-0.1,0.3-0.4,0.6-0.7,0.9c-0.4,0.3-0.7,0.2-1.2-0.2c-0.2,0.6-0.4,1-0.8,1.2
				c-0.4,0.2-0.8,0.3-1.2,0.3s-0.9-0.1-1.3-0.3s-0.8-0.4-1.2-0.7c-2.1,1.7-4.1,3.3-6.2,4.8c-2,1.5-3.9,3.3-5.5,5.4
				c-0.3,0.2-0.5,0.2-0.5,0.2C421.5,166.1,421.3,166.1,420.9,166.3z"/>
			<path id="XMLID_230_" class="st0" d="M479.8,189.8c-0.6,0.5-0.9,1.1-1.1,1.8c-0.1,0.7-0.3,1.5-0.4,2.2c-0.2,0.7-0.5,1.3-0.9,1.8
				c-0.4,0.5-1.2,0.7-2.3,0.7c-0.2,0.3-0.3,0.5-0.1,0.5c0.1,0.1,0.3,0.3,0.4,0.8c-0.8-0.1-1.4-0.1-1.8,0.2c-0.4,0.2-0.8,0.4-1.3,0.5
				c-1.4-0.4-2.5-1.2-3.4-2.3c-0.9-1.1-1.7-2.3-2.4-3.6c-0.7-1.3-1.3-2.6-1.8-4c-0.5-1.4-1-2.5-1.6-3.5c0-0.2,0.1-0.3,0.3-0.3
				c0.2,0,0.4,0,0.6,0c-0.3-0.6-0.5-1.3-0.7-2c-0.1-0.7-0.4-1.3-0.8-1.8c1.7-3.7,3.5-7.5,5.5-11.5c2-4,3.9-8,5.9-12.1
				c2-4.1,4-8.2,5.9-12.4c2-4.2,3.9-8.3,5.7-12.3c1.7,0.6,3.3,1.3,4.8,2.1c1.6,0.8,3,1.7,4.3,2.8c1.3,1.1,2.4,2.3,3.3,3.7
				c0.9,1.4,1.5,3,1.8,4.7c-0.1,0.4-0.3,0.5-0.4,0.4s-0.3-0.1-0.4,0.2c0.3,0.4,0.5,0.6,0.5,0.8c0,0.1,0,0.3,0,0.4
				c-0.1,0.1-0.1,0.3-0.1,0.6s0.1,0.6,0.4,1c-0.3-0.1-0.5,0-0.6,0.1c-0.1,0.1-0.3,0.2-0.6,0c0.3,0.8,0.4,1.5,0.3,2
				c-0.1,0.5-0.3,0.9-0.5,1.3c-0.2,0.4-0.4,0.8-0.6,1.2c-0.1,0.4-0.1,1,0.1,1.8c-0.2,0-0.4,0-0.5,0.1s-0.2,0.2-0.2,0.3
				c-0.1,0.1-0.1,0.2-0.2,0.3c-0.1,0.1-0.3,0.1-0.5,0c0.2,1.5,0.2,3.1,0.2,4.7c-0.1,1.6-0.1,3.2-0.2,4.8c-0.1,1.6-0.1,3.3,0,5
				c0.1,1.7,0.3,3.5,0.7,5.3c2.5-1.5,4.6-3.4,6.2-5.8c1.6-2.4,2.8-5,3.7-7.9c0.9-2.9,1.6-6,2.1-9.3c0.5-3.3,1-6.7,1.6-10.1
				c0.6-0.6,1.2-1.4,1.6-2.4c0.4-0.9,0.7-1.9,1-2.9c0.3-1,0.5-2,0.8-3.1c0.3-1,0.6-2,1.1-2.8c1.1,0.1,2,0.4,2.7,0.9
				c0.7,0.5,1.4,1.1,2.1,1.7c0.6,0.6,1.3,1.2,2,1.7s1.6,0.9,2.7,1.1c0.8,1.2,1.6,2.3,2.3,3.4c0.7,1.1,1.2,2.3,1.4,3.7
				c-0.4,0.6-0.6,1.2-0.8,2s-0.4,1.4-0.6,2.1c-0.2,0.7-0.5,1.4-0.8,2c-0.4,0.6-0.9,1.1-1.5,1.5c-0.2,1.8-0.4,3.4-0.8,5
				c-0.4,1.5-0.7,3-1,4.5c-0.3,1.5-0.6,3-0.8,4.6c-0.2,1.6-0.3,3.3-0.3,5.2c-0.5,1.7-1.1,3.5-1.8,5.3c-0.7,1.8-1.1,3.5-1.4,5
				c-1.1,0.9-2,2-2.7,3.3c-0.7,1.3-1.3,2.6-2,3.9c-0.3,0.2-0.5,0.3-0.5,0.1c-0.1-0.1-0.3-0.2-0.8-0.3c0.1,0.5,0,0.9-0.3,1
				c-0.3,0.1-0.3,0.6,0,1.3c-1,0.5-1.9,1.1-2.7,1.9c-0.8,0.8-1.6,1.5-2.5,2.1c-0.9,0.6-2,1.1-3.2,1.3c-1.2,0.2-2.8,0-4.7-0.8
				c-2.9-2.1-5.5-4.6-7.8-7.4c-2.3-2.8-4.1-6.1-5.5-9.8c-0.6,0.2-1,0.6-1.3,1.2c-0.3,0.6-0.6,1.2-0.8,1.9c-0.2,0.6-0.5,1.2-0.7,1.8
				c-0.2,0.5-0.6,0.8-1.1,0.8c-0.1,0.5-0.3,1-0.7,1.5c-0.3,0.4-0.6,0.9-0.9,1.3c-0.3,0.4-0.5,0.9-0.7,1.5
				C479.4,188.6,479.5,189.2,479.8,189.8z"/>
			<path id="XMLID_227_" class="st0" d="M545,198.5c-2.6,0.4-5,0.2-7.1-0.4c-2.1-0.6-4-1.5-5.7-2.7s-3.1-2.7-4.3-4.4
				c-1.2-1.7-2.2-3.5-3-5.5c-0.5-4-0.4-7.7,0.4-10.9c0.8-3.3,2-6.3,3.6-9.1c1.6-2.8,3.4-5.4,5.5-7.8c2-2.4,4-4.8,5.9-7
				c0.4,0.2,0.8,0.2,1,0c0.3-0.2,0.5-0.4,0.7-0.7c0.2-0.3,0.4-0.6,0.7-0.9c0.3-0.3,0.6-0.5,0.9-0.6c0.2-0.5,0.5-1,0.9-1.3
				c0.4-0.4,0.8-0.7,1.2-1c0.4-0.3,0.9-0.7,1.2-1c0.4-0.4,0.7-0.8,1-1.3c0.6-0.1,1.1-0.3,1.6-0.6c0.4-0.3,0.9-0.6,1.2-1
				c0.4-0.4,0.8-0.7,1.2-1c0.4-0.3,0.9-0.5,1.5-0.7v-1.2c1.3-0.6,2.2-1.2,2.8-2c0.6-0.7,1.3-1.6,2.1-2.7c0.6-0.1,1.2-0.1,1.6-0.1
				c0.4,0,1-0.1,1.8-0.2c0.5-1,1-1.7,1.5-2.2c0.5-0.5,1.2-1,2-1.6c0.9,0.5,1.8,0.8,2.8,0.8c1,0.1,1.9,0.5,2.7,1.4
				c0.1,0.7,0.3,1.3,0.6,1.6c0.4,0.4,0.7,0.7,1.2,1.1c0.4,0.3,0.8,0.7,1.2,1c0.4,0.4,0.7,0.9,0.8,1.5c0.3,0,0.5-0.1,0.6-0.2
				c0.1-0.1,0.3-0.1,0.6-0.1c0.1,0.5,0.2,0.9,0.4,1.2c0.1,0.3,0.2,0.6,0.4,0.8c0.1,0.2,0.3,0.5,0.4,0.8c0.1,0.3,0.3,0.6,0.4,1.1
				c-0.3,0.7-0.6,1.5-0.8,2.3c-0.2,0.8-0.7,1.3-1.4,1.6c0,0.5,0.2,0.7,0.5,0.8c0.4,0,0.6,0.2,0.6,0.7c0.1,0.5,0,1-0.3,1.3
				c1.7,2.8,3.2,5.7,4.5,8.7c1.4,3,2.9,6,4.6,8.7c-0.1,0.8-0.1,1.6,0.1,2.4c0.2,0.8,0.5,1.6,0.8,2.3c0.3,0.8,0.6,1.5,0.9,2.3
				c0.3,0.8,0.5,1.5,0.6,2.3c0.1,1,0.1,2.1,0,3.2c-0.1,1.2-0.4,2.3-0.7,3.3c-0.4,1.1-0.8,2.1-1.4,3c-0.6,0.9-1.3,1.6-2,2.1
				c-0.9,1.2-2.1,2.1-3.5,2.9s-2.7,1.6-3.9,2.6c-0.8,0.5-1.7,0.8-2.7,1c-0.9,0.2-1.9,0.4-2.9,0.7c-0.8,0.5-1.7,0.9-2.7,1.4
				c-1.1,0.4-2.2,0.8-3.3,1.2c-1.1,0.4-2.2,0.6-3.4,0.8c-1.1,0.2-2.1,0.2-3,0.1c-2.1,0.8-4.2,1.3-6.2,1.6
				C550,199.3,547.7,199.1,545,198.5z M546.1,166.3c-0.6,1.4-1.3,2.6-2.1,3.7c-0.8,1.1-1.6,2.2-2.3,3.3c-0.8,1.1-1.4,2.3-2,3.6
				c-0.6,1.3-0.9,2.8-0.9,4.5c1.2,1,2.6,1.6,4.2,1.8c1.6,0.2,3.3,0.2,5,0.1c1.7-0.1,3.4-0.4,5.1-0.7c1.7-0.3,3.2-0.4,4.6-0.4
				c0-0.5,0.2-0.8,0.7-0.8c2.5-0.2,4.8-0.9,6.9-2.1s4.3-2.3,6.6-3.5c0.3-0.7,0.7-1.3,1.2-1.9c0.5-0.5,0.7-1.3,0.8-2.3
				c-0.3-0.5-0.5-1-0.6-1.3c-0.1-0.4-0.1-0.9-0.1-1.6c-1.5-2.1-2.9-4.4-4-7c-1.1-2.5-2.4-4.9-3.9-7.1c-0.1,0.3-0.4,0.6-0.7,0.9
				s-0.7,0.2-1.2-0.2c-0.2,0.6-0.4,1-0.8,1.2s-0.8,0.3-1.2,0.3s-0.9-0.1-1.3-0.3c-0.4-0.2-0.8-0.4-1.2-0.7c-2.1,1.7-4.1,3.3-6.2,4.8
				c-2,1.5-3.9,3.3-5.5,5.4c-0.3,0.2-0.5,0.2-0.5,0.2C546.7,166.1,546.5,166.1,546.1,166.3z"/>
		</g>
	</g>
	<g id="XMLID_3189_">
		<g id="XMLID_296_">
			<g id="XMLID_319_">
				<path id="XMLID_326_" class="st0" d="M46.8,70.8c-3,4.7-7.4,10.6-7.4,16.4c0,1.5,0.1,4.5,2.1,4.5c3.1,0,11.4-7.4,14.3-9.3l0.6,3
					c-4.3,4.7-13.6,14.3-20.2,14.3c-3.5,0-4.8-3.6-4.8-6.5c0-2.3,0.4-4.6,0.7-6.9C29,89,20.5,97.8,16.4,97.8S9.8,89.1,9.8,86
					c0-10.7,18.1-19.8,25.8-20.2c1.9-0.1,2.6,1.2,3.8,2.5c3-5.2,11-24,17.6-24c1.8,0,2.9,1.8,2.9,3.5c0,2.7-2.5,6.4-3.9,8.7
					L46.8,70.8z M17.8,87.9c-0.1,0.8,0.4,1.5,1.4,1.7c1.1,0.3,15.7-10.6,17.2-16C20.4,78.8,18.4,81.9,17.8,87.9z"/>
				<path id="XMLID_323_" class="st0" d="M87.4,85.3c-5.5,6.4-15.5,15-24.5,15c-6.6,0-9.7-5.9-9.9-11.9c-0.4-11.9,12.8-24.1,24.6-24
					c2.9,0,6.5,0.7,6.5,4.4c0,4.4-4.4,11.2-21.9,16.9l-0.2,2c-0.3,3.5,2.7,4.6,5.6,4.6c6.4,0,14.1-6.6,18.9-10.4L87.4,85.3z
					 M76.1,70.7c0-0.6-0.5-1.2-1.1-1c-4.5,1.2-9.8,5.5-12.3,11.5C70.7,78.5,76.2,72.2,76.1,70.7z"/>
				<path id="XMLID_320_" class="st0" d="M112.7,85.4c-5,5.2-13.5,14.3-21.3,14.3c-6.6,0-8.1-6.4-8.1-11.8c0-9.5,4.1-19.8,10-27.1
					c8-9.9,16.6-18.3,19.5-18.3c1.5,0,1.9,2.2,1.8,3.4c-0.6,8.6-3,16.6-22.7,35.7c-0.8,1.5-1.1,4.1-0.6,6.3c0.8,2.1,2.1,3.9,4.5,3.9
					c5,0,12-5.8,15.6-9.1L112.7,85.4z M93.9,73.2c6.4-6,12.1-14.7,13.7-19.9c-4.4,2.2-9.6,10.4-13.9,19.7L93.9,73.2z"/>
			</g>
			<path id="XMLID_317_" class="st0" d="M134.7,96.3c-3.2,1.1-6.9,3.2-10.4,3.2c-1.8,0-4.1-0.4-4.1-2.8c0-3,6.2-10.4,8.2-13.1
				c1.2-1.6,2.1-3.2,4.1-3.7c5.5-1.3,11.5-1.5,17-2.5l38.4-45.7c4.8-5.7,24.2-25.4,31.2-25.4c4.5,0,6.6,4.8,6.6,8.6
				c0,8.5-10.8,23.9-15.1,31.4c1.1,0.1,2.4,0.4,2.4,1.8c0,2.4-5.5,6.3-7.4,7.7c-2.2,1.6-9,6.9-11.5,6.9c-2.4,0-3-2-3-4
				c0-9.9,11.4-24.3,17.7-31.4c1.1-1.2,1.2-2.5,0.3-2.5c-1.7,0-7.4,5.3-22.1,22l-26.4,30.2c21.9,4.2,33.3,6.5,53.1,11.2l-7,7
				c-8.5,8.5-7.9,8.7-33.8,3.3c-11.6-2.5-23.4-4.1-35.3-3.7L134.7,96.3z"/>
			<path id="XMLID_313_" class="st0" d="M238.3,89.9c-2.5,2-11,8.8-14,8.8c-3.7,0-11.4-8.7-11.6-15.6c-0.5-16.5,33.8-33.4,49.1-33.8
				c6.1-0.1,8.6,4.8,8.6,6.3c0,1.6-3.4,2.9-4.6,3.3c2.5,1.1,3.8,2.5,3.8,5.4c0,4.2-11.5,13.5-11.5,19.7c0,2.2,2,3.2,4.1,3.2
				c5.5,0,13.1-6.7,18.8-10.6l1.1,4.9c-5.7,6.5-23.4,20.6-29.8,20.6c-4.4,0-6.3-3.2-6.3-7c0-4.2,3.2-11.2,4.9-14.8l-0.3-0.3
				L238.3,89.9z M222.3,86.4c0.1,0.7,0.7,3,2.6,2.6c2.6-0.5,6.7-0.1,32.9-26.5l-0.3-0.3C226.1,71.9,222.3,80,222.3,86.4z
				 M268.2,30.5c1.3-0.4,2.6-0.8,4.1-0.8c3.3,0,2.8,2.9,3,5.7c0.4,5.4,0.8,5.8-4.6,5.4c-4.8-0.3-6.3-0.1-11.2,0.5
				c-3.7,0.5-9.1,1.5-12.5,2.8c-1.3,0.5-3,1.1-4.4,1.1c-0.9,0-1.8-0.1-1.8-1.2c0-2,2.1-4.4,3.7-5.4c3.3-2.1,12-4.5,16-5.7
				L268.2,30.5z"/>
			<path id="XMLID_310_" class="st0" d="M274.2,120.9c-1.1,2-3.4,5.5-5.9,5.5c-3,0-3.8-3.6-3.8-5.9c-0.1-6.6,2.8-13.2,8.2-20.9
				c6.1-8.6,12.7-19.4,21.3-33.9l-0.3-0.3l-20.9,19.9l-0.5-6.2l35-37.6c3.2-3.4,5.5-7.3,10.6-7.3c1.8,0,6.1,0.7,6.1,3.2
				c0,2.9-6.9,9.2-9,11.5c-4.5,4.8-8.6,9.6-11.2,15.6l0.3,0.3c5.7-4.1,19-12.8,26.1-12.8c3.6,0,5.5,2.8,5.5,6.2
				c0,7.3-6.6,16.4-21.4,29.4c11.4,0.8,14-1.3,28.1-13.5l0.9,6.1c-9.8,9.5-21.7,19-35.9,19c-3.6,0-6.2-1.1-9.4-2.6
				c-2,0.4-4,0.8-6.1,0.8c-1.8,0-3.6-0.4-5.3-0.8L274.2,120.9z M316,74.2c1.5-1.8,3.3-4.1,3.3-6.5c0-0.9-0.4-1.8-1.5-1.8
				c-2.1,0-8.5,4.1-10.2,5.3c-4.9,3.6-8.6,8.1-12.1,12.8c3.8-0.3,7.5,0.1,11.1,1.3L316,74.2z"/>
			<path id="XMLID_307_" class="st0" d="M376.1,81.7c-5.9,7.3-17.6,19.1-27.6,19.1c-7.8,0-11.4-9-11.4-15.7
				c0-16.1,16.5-31.8,24.4-31.8c2.2,0,5.8,0.8,5.8,3.7c0,6.6-13.1,18.4-18.6,22.2c-1.1,5.4,0.9,8.3,7,8.3c7,0,13.9-7,19.1-10.8
				L376.1,81.7z M363.4,45c0-5.4,6.3-10.2,11.5-10.2c2.4,0,4.4,1.7,4.4,4.1c0,5.3-4.9,11.8-10.6,11.8
				C365.6,50.7,363.4,48.1,363.4,45z"/>
			<path id="XMLID_304_" class="st0" d="M401.5,95.3c-3,21.1-23.6,34.6-32.4,35.5c-3.6,0.4-5.9-2.9-5.9-6.3
				c-0.1-7.3,6.6-12.9,11.9-17.2l17.2-13.7c-1.3-5.5-3.3-6.2-8.5-7.7c-2-0.5-5.2-0.8-4.8-3.3c0.7-4.4,9.4-7.8,24-19.9l-0.3-0.3
				l-16.1,2.8l-15.1,16.4l-1.5-4.4l9.2-11.2c-2-0.4-3.6-1.2-3.6-3.6c0-4.9,10.2-14.1,14.4-14.1c2.5,0,3.3,2.5,3.3,4.6
				c10.4-1.6,14.9-3.8,17.6-3.8c2.5,0,4.2,9,4.2,10.4c0,2.1-2.4,4.1-4,5.1l-16.9,12.3c3.6,2.6,5.8,6.1,6.9,10.4l20.9-16.1l0.4,5.7
				L401.5,95.3z M376.9,113.5c-3.7,2.9-6.6,5.9-7.1,10.7c9-2.4,20.6-13.1,22.3-22.6L376.9,113.5z"/>
			<g id="XMLID_297_">
				<path id="XMLID_301_" class="st0" d="M450.4,92.7c-1.7,1.4-7.5,6.1-9.6,6.1c-2.5,0-7.8-6-8-10.7c-0.4-11.3,23.2-23,33.8-23.2
					c4.2-0.1,5.9,3.3,5.9,4.4c0,1.1-2.4,2-3.2,2.3c1.7,0.7,2.6,1.7,2.6,3.7c0,2.9-7.9,9.3-7.9,13.5c0,1.5,1.4,2.2,2.8,2.2
					c3.8,0,9-4.6,12.9-7.3l0.7,3.4c-3.9,4.4-16.1,14.2-20.5,14.2c-3,0-4.4-2.2-4.4-4.8c0-2.9,2.2-7.7,3.4-10.2l-0.2-0.2L450.4,92.7z
					 M439.4,90.3c0.1,0.5,0.5,2.1,1.8,1.8c1.8-0.4,4.6-0.1,22.6-18.2l-0.2-0.2C442,80.3,439.4,85.9,439.4,90.3z"/>
				<path id="XMLID_298_" class="st0" d="M506.4,85.4c-5,5.2-13.5,14.3-21.3,14.3c-6.6,0-8.1-6.4-8.1-11.8c0-9.5,4.1-19.8,10-27.1
					c8-9.9,16.6-18.3,19.5-18.3c1.5,0,1.9,2.2,1.8,3.4c-0.6,8.6-3,16.6-22.7,35.7c-0.8,1.5-1.1,4.1-0.6,6.3c0.8,2.1,2.1,3.9,4.5,3.9
					c5,0,12-5.8,15.6-9.1L506.4,85.4z M487.6,73.2c6.4-6,12.1-14.7,13.7-19.9c-4.4,2.2-9.6,10.4-13.9,19.7L487.6,73.2z"/>
			</g>
		</g>
	</g>
</g>
<g id="XMLID_16_">
	<path id="XMLID_17_" class="st0" d="M121.5,220.6v1.9h-4.4v2.5h3.4v1.8h-3.4v2.6h4.4v1.9h-6.9v-10.8H121.5z"/>
	<path id="XMLID_29_" class="st0" d="M130.4,222.7c-0.1,0.1-0.2,0.2-0.2,0.3c-0.1,0.1-0.2,0.1-0.3,0.1c-0.1,0-0.2,0-0.4-0.1
		c-0.1-0.1-0.3-0.2-0.4-0.2c-0.2-0.1-0.4-0.2-0.6-0.2c-0.2-0.1-0.5-0.1-0.7-0.1c-0.5,0-0.8,0.1-1,0.3c-0.2,0.2-0.3,0.5-0.3,0.8
		c0,0.2,0.1,0.4,0.2,0.5c0.1,0.1,0.3,0.3,0.5,0.4c0.2,0.1,0.5,0.2,0.8,0.3c0.3,0.1,0.6,0.2,0.9,0.3c0.3,0.1,0.6,0.2,0.9,0.4
		c0.3,0.1,0.5,0.3,0.8,0.5c0.2,0.2,0.4,0.5,0.5,0.8c0.1,0.3,0.2,0.7,0.2,1.1c0,0.5-0.1,1-0.3,1.4c-0.2,0.4-0.4,0.8-0.8,1.1
		c-0.3,0.3-0.7,0.6-1.2,0.8c-0.5,0.2-1,0.3-1.6,0.3c-0.3,0-0.7,0-1-0.1c-0.3-0.1-0.7-0.2-1-0.3c-0.3-0.1-0.6-0.3-0.9-0.4
		c-0.3-0.2-0.5-0.4-0.7-0.6l0.7-1.2c0.1-0.1,0.1-0.2,0.2-0.2c0.1-0.1,0.2-0.1,0.3-0.1c0.1,0,0.3,0,0.4,0.1c0.2,0.1,0.3,0.2,0.5,0.3
		c0.2,0.1,0.4,0.2,0.7,0.3c0.2,0.1,0.5,0.1,0.9,0.1c0.5,0,0.8-0.1,1.1-0.3c0.3-0.2,0.4-0.5,0.4-0.9c0-0.3-0.1-0.5-0.2-0.6
		c-0.1-0.2-0.3-0.3-0.5-0.4c-0.2-0.1-0.5-0.2-0.8-0.3c-0.3-0.1-0.6-0.2-0.9-0.3c-0.3-0.1-0.6-0.2-0.9-0.4c-0.3-0.1-0.5-0.3-0.8-0.6
		c-0.2-0.2-0.4-0.5-0.5-0.9c-0.1-0.3-0.2-0.8-0.2-1.3c0-0.4,0.1-0.8,0.2-1.2s0.4-0.7,0.7-1c0.3-0.3,0.7-0.5,1.2-0.7
		c0.5-0.2,1-0.3,1.6-0.3c0.3,0,0.7,0,1,0.1c0.3,0.1,0.6,0.1,0.9,0.2c0.3,0.1,0.5,0.2,0.8,0.4s0.5,0.3,0.7,0.5L130.4,222.7z"/>
	<path id="XMLID_31_" class="st0" d="M141.1,228.5c0.1,0,0.1,0,0.2,0c0.1,0,0.1,0.1,0.2,0.1l1,1c-0.4,0.6-1,1-1.6,1.3
		c-0.7,0.3-1.4,0.4-2.3,0.4c-0.8,0-1.6-0.1-2.2-0.4c-0.6-0.3-1.2-0.7-1.6-1.2c-0.5-0.5-0.8-1.1-1-1.7c-0.2-0.7-0.4-1.4-0.4-2.2
		c0-0.8,0.1-1.5,0.4-2.2c0.3-0.7,0.7-1.3,1.2-1.7c0.5-0.5,1.1-0.9,1.8-1.1s1.5-0.4,2.3-0.4c0.4,0,0.8,0,1.1,0.1
		c0.4,0.1,0.7,0.2,1,0.3c0.3,0.1,0.6,0.3,0.9,0.5c0.3,0.2,0.5,0.4,0.7,0.6l-0.8,1.1c-0.1,0.1-0.1,0.1-0.2,0.2
		c-0.1,0.1-0.2,0.1-0.3,0.1c-0.1,0-0.2,0-0.3-0.1c-0.1,0-0.2-0.1-0.3-0.1c-0.1-0.1-0.2-0.1-0.3-0.2c-0.1-0.1-0.2-0.1-0.4-0.2
		c-0.1-0.1-0.3-0.1-0.5-0.1c-0.2,0-0.4-0.1-0.7-0.1c-0.5,0-0.9,0.1-1.2,0.2c-0.4,0.2-0.7,0.4-1,0.7c-0.3,0.3-0.5,0.7-0.6,1.1
		c-0.1,0.4-0.2,0.9-0.2,1.4c0,0.6,0.1,1,0.2,1.5c0.2,0.4,0.4,0.8,0.6,1.1c0.3,0.3,0.6,0.5,0.9,0.7c0.3,0.2,0.7,0.2,1.1,0.2
		c0.2,0,0.4,0,0.6,0c0.2,0,0.4-0.1,0.5-0.1c0.2-0.1,0.3-0.1,0.5-0.2c0.1-0.1,0.3-0.2,0.4-0.3c0.1,0,0.1-0.1,0.2-0.1
		S141.1,228.5,141.1,228.5z"/>
	<path id="XMLID_33_" class="st0" d="M147.6,227.3v4h-2.5v-10.8h3.5c0.8,0,1.4,0.1,2,0.2c0.5,0.2,1,0.4,1.3,0.7
		c0.3,0.3,0.6,0.6,0.8,1c0.2,0.4,0.2,0.8,0.2,1.3c0,0.4,0,0.7-0.1,1c-0.1,0.3-0.2,0.6-0.4,0.9c-0.2,0.3-0.4,0.5-0.7,0.7
		c-0.3,0.2-0.6,0.4-0.9,0.5c0.2,0.1,0.3,0.2,0.5,0.3c0.1,0.1,0.3,0.3,0.4,0.5l2.3,3.7h-2.3c-0.4,0-0.7-0.2-0.9-0.5l-1.8-3.1
		c-0.1-0.1-0.2-0.2-0.3-0.3s-0.3-0.1-0.4-0.1H147.6z M147.6,225.6h1c0.3,0,0.6,0,0.9-0.1c0.2-0.1,0.4-0.2,0.6-0.4
		c0.2-0.2,0.3-0.3,0.3-0.5c0.1-0.2,0.1-0.4,0.1-0.7c0-0.5-0.2-0.8-0.5-1.1c-0.3-0.3-0.8-0.4-1.4-0.4h-1V225.6z"/>
	<path id="XMLID_36_" class="st0" d="M159.1,231.3h-2.5v-10.8h2.5V231.3z"/>
	<path id="XMLID_38_" class="st0" d="M170.4,220.6v2h-3v8.8h-2.5v-8.8h-3v-2H170.4z"/>
	<path id="XMLID_40_" class="st0" d="M177.4,229.4c0.3,0,0.6-0.1,0.9-0.2c0.3-0.1,0.5-0.3,0.7-0.5c0.2-0.2,0.3-0.5,0.4-0.8
		c0.1-0.3,0.1-0.6,0.1-1v-6.4h2.5v6.4c0,0.7-0.1,1.3-0.3,1.8c-0.2,0.6-0.5,1-0.9,1.4c-0.4,0.4-0.9,0.7-1.5,0.9
		c-0.6,0.2-1.2,0.3-1.9,0.3c-0.7,0-1.4-0.1-1.9-0.3c-0.6-0.2-1.1-0.5-1.5-0.9c-0.4-0.4-0.7-0.9-0.9-1.4c-0.2-0.6-0.3-1.2-0.3-1.8
		v-6.4h2.5v6.4c0,0.4,0,0.7,0.1,1c0.1,0.3,0.2,0.6,0.4,0.8c0.2,0.2,0.4,0.4,0.7,0.5C176.8,229.3,177.1,229.4,177.4,229.4z"/>
	<path id="XMLID_42_" class="st0" d="M187.7,227.3v4h-2.5v-10.8h3.5c0.8,0,1.4,0.1,2,0.2c0.5,0.2,1,0.4,1.3,0.7
		c0.3,0.3,0.6,0.6,0.8,1c0.2,0.4,0.2,0.8,0.2,1.3c0,0.4,0,0.7-0.1,1c-0.1,0.3-0.2,0.6-0.4,0.9c-0.2,0.3-0.4,0.5-0.7,0.7
		c-0.3,0.2-0.6,0.4-0.9,0.5c0.2,0.1,0.3,0.2,0.5,0.3s0.3,0.3,0.4,0.5l2.3,3.7h-2.3c-0.4,0-0.7-0.2-0.9-0.5l-1.8-3.1
		c-0.1-0.1-0.2-0.2-0.3-0.3c-0.1-0.1-0.3-0.1-0.4-0.1H187.7z M187.7,225.6h1c0.3,0,0.6,0,0.9-0.1c0.2-0.1,0.4-0.2,0.6-0.4
		c0.2-0.2,0.3-0.3,0.3-0.5c0.1-0.2,0.1-0.4,0.1-0.7c0-0.5-0.2-0.8-0.5-1.1c-0.3-0.3-0.8-0.4-1.4-0.4h-1V225.6z"/>
	<path id="XMLID_45_" class="st0" d="M206.5,231.3h-1.9c-0.2,0-0.4-0.1-0.5-0.2c-0.1-0.1-0.2-0.2-0.3-0.4l-0.6-1.9H199l-0.6,1.9
		c0,0.1-0.1,0.3-0.3,0.4c-0.1,0.1-0.3,0.2-0.5,0.2h-2l4.2-10.8h2.6L206.5,231.3z M199.6,227.2h2.9l-1-2.9c-0.1-0.2-0.1-0.4-0.2-0.7
		c-0.1-0.3-0.2-0.5-0.3-0.8c-0.1,0.3-0.2,0.6-0.2,0.8c-0.1,0.3-0.2,0.5-0.2,0.7L199.6,227.2z"/>
	<path id="XMLID_48_" class="st0" d="M218.6,227.2v4.1h-2.5v-4.1l-3.9-6.7h2.2c0.2,0,0.4,0.1,0.5,0.2s0.2,0.2,0.3,0.4l1.5,3.1
		c0.1,0.3,0.2,0.5,0.3,0.7s0.2,0.4,0.3,0.6c0.1-0.2,0.2-0.4,0.3-0.6c0.1-0.2,0.2-0.4,0.3-0.7l1.5-3.1c0-0.1,0.1-0.1,0.1-0.2
		c0.1-0.1,0.1-0.1,0.2-0.2c0.1-0.1,0.1-0.1,0.2-0.1c0.1,0,0.2,0,0.3,0h2.2L218.6,227.2z"/>
	<path id="XMLID_50_" class="st0" d="M231.5,227.7v3.6H229v-10.8h3.8c0.8,0,1.4,0.1,2,0.3c0.5,0.2,1,0.4,1.3,0.7
		c0.4,0.3,0.6,0.7,0.8,1.1c0.2,0.4,0.3,0.9,0.3,1.4c0,0.5-0.1,1-0.3,1.5c-0.2,0.4-0.4,0.8-0.8,1.2c-0.4,0.3-0.8,0.6-1.3,0.8
		c-0.5,0.2-1.2,0.3-1.9,0.3H231.5z M231.5,225.8h1.3c0.7,0,1.1-0.2,1.4-0.5c0.3-0.3,0.4-0.7,0.4-1.3c0-0.2,0-0.5-0.1-0.7
		c-0.1-0.2-0.2-0.4-0.3-0.5c-0.2-0.1-0.3-0.3-0.6-0.3c-0.2-0.1-0.5-0.1-0.8-0.1h-1.3V225.8z"/>
	<path id="XMLID_53_" class="st0" d="M250.6,225.9c0,0.8-0.1,1.5-0.4,2.2c-0.3,0.7-0.6,1.3-1.1,1.7c-0.5,0.5-1.1,0.9-1.8,1.2
		c-0.7,0.3-1.5,0.4-2.3,0.4c-0.8,0-1.6-0.1-2.3-0.4c-0.7-0.3-1.3-0.7-1.8-1.2c-0.5-0.5-0.9-1.1-1.1-1.7c-0.3-0.7-0.4-1.4-0.4-2.2
		c0-0.8,0.1-1.5,0.4-2.2c0.3-0.7,0.6-1.3,1.1-1.7c0.5-0.5,1.1-0.9,1.8-1.2c0.7-0.3,1.5-0.4,2.3-0.4c0.8,0,1.6,0.1,2.3,0.4
		c0.7,0.3,1.3,0.7,1.8,1.2c0.5,0.5,0.9,1.1,1.1,1.7C250.4,224.4,250.6,225.2,250.6,225.9z M248,225.9c0-0.5-0.1-1-0.2-1.4
		c-0.1-0.4-0.3-0.8-0.6-1.1c-0.3-0.3-0.6-0.5-0.9-0.7c-0.4-0.2-0.8-0.2-1.3-0.2c-0.5,0-0.9,0.1-1.3,0.2c-0.4,0.2-0.7,0.4-1,0.7
		c-0.3,0.3-0.5,0.7-0.6,1.1s-0.2,0.9-0.2,1.4c0,0.5,0.1,1,0.2,1.4s0.3,0.8,0.6,1.1c0.3,0.3,0.6,0.5,1,0.7s0.8,0.2,1.3,0.2
		c0.5,0,0.9-0.1,1.3-0.2c0.4-0.2,0.7-0.4,0.9-0.7c0.3-0.3,0.5-0.7,0.6-1.1C247.9,227,248,226.5,248,225.9z"/>
	<path id="XMLID_56_" class="st0" d="M263,225.9c0,0.8-0.1,1.5-0.4,2.2s-0.6,1.2-1.1,1.7c-0.5,0.5-1.1,0.9-1.8,1.1
		c-0.7,0.3-1.5,0.4-2.3,0.4h-4.2v-10.8h4.2c0.8,0,1.6,0.1,2.3,0.4c0.7,0.3,1.3,0.6,1.8,1.1c0.5,0.5,0.9,1,1.1,1.7
		C262.9,224.5,263,225.2,263,225.9z M260.4,225.9c0-0.5-0.1-1-0.2-1.4c-0.1-0.4-0.3-0.8-0.6-1.1c-0.3-0.3-0.6-0.5-1-0.7
		c-0.4-0.2-0.8-0.2-1.3-0.2h-1.7v6.9h1.7c0.5,0,0.9-0.1,1.3-0.2c0.4-0.2,0.7-0.4,1-0.7c0.3-0.3,0.5-0.7,0.6-1.1
		C260.4,227,260.4,226.5,260.4,225.9z"/>
	<path id="XMLID_59_" class="st0" d="M272.9,228.5c0.1,0,0.1,0,0.2,0c0.1,0,0.1,0.1,0.2,0.1l1,1c-0.4,0.6-1,1-1.6,1.3
		s-1.4,0.4-2.3,0.4c-0.8,0-1.6-0.1-2.2-0.4c-0.6-0.3-1.2-0.7-1.6-1.2s-0.8-1.1-1-1.7c-0.2-0.7-0.4-1.4-0.4-2.2
		c0-0.8,0.1-1.5,0.4-2.2c0.3-0.7,0.7-1.3,1.2-1.7c0.5-0.5,1.1-0.9,1.8-1.1c0.7-0.3,1.5-0.4,2.3-0.4c0.4,0,0.8,0,1.1,0.1
		c0.4,0.1,0.7,0.2,1,0.3c0.3,0.1,0.6,0.3,0.9,0.5c0.3,0.2,0.5,0.4,0.7,0.6l-0.8,1.1c-0.1,0.1-0.1,0.1-0.2,0.2s-0.2,0.1-0.3,0.1
		c-0.1,0-0.2,0-0.3-0.1c-0.1,0-0.2-0.1-0.3-0.1c-0.1-0.1-0.2-0.1-0.3-0.2c-0.1-0.1-0.2-0.1-0.4-0.2c-0.1-0.1-0.3-0.1-0.5-0.1
		c-0.2,0-0.4-0.1-0.7-0.1c-0.5,0-0.9,0.1-1.2,0.2c-0.4,0.2-0.7,0.4-1,0.7c-0.3,0.3-0.5,0.7-0.6,1.1c-0.1,0.4-0.2,0.9-0.2,1.4
		c0,0.6,0.1,1,0.2,1.5c0.2,0.4,0.4,0.8,0.6,1.1c0.3,0.3,0.6,0.5,0.9,0.7c0.3,0.2,0.7,0.2,1.1,0.2c0.2,0,0.4,0,0.6,0
		c0.2,0,0.4-0.1,0.5-0.1c0.2-0.1,0.3-0.1,0.5-0.2c0.1-0.1,0.3-0.2,0.4-0.3c0.1,0,0.1-0.1,0.2-0.1
		C272.8,228.6,272.8,228.5,272.9,228.5z"/>
	<path id="XMLID_61_" class="st0" d="M286.9,231.3H285c-0.2,0-0.4-0.1-0.5-0.2s-0.2-0.2-0.3-0.4l-0.6-1.9h-4.1l-0.6,1.9
		c0,0.1-0.1,0.3-0.3,0.4c-0.1,0.1-0.3,0.2-0.5,0.2h-2l4.2-10.8h2.6L286.9,231.3z M280,227.2h2.9l-1-2.9c-0.1-0.2-0.1-0.4-0.2-0.7
		c-0.1-0.3-0.2-0.5-0.3-0.8c-0.1,0.3-0.2,0.6-0.2,0.8c-0.1,0.3-0.2,0.5-0.2,0.7L280,227.2z"/>
	<path id="XMLID_64_" class="st0" d="M295.3,222.7c-0.1,0.1-0.2,0.2-0.2,0.3c-0.1,0.1-0.2,0.1-0.3,0.1c-0.1,0-0.2,0-0.4-0.1
		c-0.1-0.1-0.3-0.2-0.4-0.2c-0.2-0.1-0.4-0.2-0.6-0.2c-0.2-0.1-0.5-0.1-0.7-0.1c-0.5,0-0.8,0.1-1,0.3c-0.2,0.2-0.3,0.5-0.3,0.8
		c0,0.2,0.1,0.4,0.2,0.5c0.1,0.1,0.3,0.3,0.5,0.4c0.2,0.1,0.5,0.2,0.8,0.3c0.3,0.1,0.6,0.2,0.9,0.3c0.3,0.1,0.6,0.2,0.9,0.4
		c0.3,0.1,0.5,0.3,0.8,0.5c0.2,0.2,0.4,0.5,0.5,0.8c0.1,0.3,0.2,0.7,0.2,1.1c0,0.5-0.1,1-0.3,1.4c-0.2,0.4-0.4,0.8-0.8,1.1
		c-0.3,0.3-0.7,0.6-1.2,0.8c-0.5,0.2-1,0.3-1.6,0.3c-0.3,0-0.7,0-1-0.1c-0.3-0.1-0.7-0.2-1-0.3c-0.3-0.1-0.6-0.3-0.9-0.4
		c-0.3-0.2-0.5-0.4-0.7-0.6l0.7-1.2c0.1-0.1,0.1-0.2,0.2-0.2c0.1-0.1,0.2-0.1,0.3-0.1c0.1,0,0.3,0,0.4,0.1c0.2,0.1,0.3,0.2,0.5,0.3
		c0.2,0.1,0.4,0.2,0.7,0.3c0.2,0.1,0.5,0.1,0.9,0.1c0.5,0,0.8-0.1,1.1-0.3c0.3-0.2,0.4-0.5,0.4-0.9c0-0.3-0.1-0.5-0.2-0.6
		c-0.1-0.2-0.3-0.3-0.5-0.4c-0.2-0.1-0.5-0.2-0.8-0.3c-0.3-0.1-0.6-0.2-0.9-0.3c-0.3-0.1-0.6-0.2-0.9-0.4c-0.3-0.1-0.5-0.3-0.8-0.6
		c-0.2-0.2-0.4-0.5-0.5-0.9c-0.1-0.3-0.2-0.8-0.2-1.3c0-0.4,0.1-0.8,0.2-1.2c0.2-0.4,0.4-0.7,0.7-1c0.3-0.3,0.7-0.5,1.2-0.7
		c0.5-0.2,1-0.3,1.6-0.3c0.3,0,0.7,0,1,0.1c0.3,0.1,0.6,0.1,0.9,0.2c0.3,0.1,0.5,0.2,0.8,0.4s0.5,0.3,0.7,0.5L295.3,222.7z"/>
	<path id="XMLID_66_" class="st0" d="M306.6,220.6v2h-3v8.8H301v-8.8h-3v-2H306.6z"/>
	<path id="XMLID_68_" class="st0" d="M323.2,225.9c0,0.8-0.1,1.5-0.4,2.2s-0.6,1.2-1.1,1.7c-0.5,0.5-1.1,0.9-1.8,1.1
		c-0.7,0.3-1.5,0.4-2.3,0.4h-4.2v-10.8h4.2c0.8,0,1.6,0.1,2.3,0.4c0.7,0.3,1.3,0.6,1.8,1.1c0.5,0.5,0.9,1,1.1,1.7
		C323,224.5,323.2,225.2,323.2,225.9z M320.6,225.9c0-0.5-0.1-1-0.2-1.4c-0.1-0.4-0.3-0.8-0.6-1.1c-0.3-0.3-0.6-0.5-1-0.7
		c-0.4-0.2-0.8-0.2-1.3-0.2h-1.7v6.9h1.7c0.5,0,0.9-0.1,1.3-0.2c0.4-0.2,0.7-0.4,1-0.7c0.3-0.3,0.5-0.7,0.6-1.1
		C320.6,227,320.6,226.5,320.6,225.9z"/>
	<path id="XMLID_71_" class="st0" d="M332.8,220.6v1.9h-4.4v2.5h3.4v1.8h-3.4v2.6h4.4v1.9h-6.9v-10.8H332.8z"/>
	<path id="XMLID_73_" class="st0" d="M341.7,222.7c-0.1,0.1-0.2,0.2-0.2,0.3c-0.1,0.1-0.2,0.1-0.3,0.1c-0.1,0-0.2,0-0.4-0.1
		c-0.1-0.1-0.3-0.2-0.4-0.2c-0.2-0.1-0.4-0.2-0.6-0.2c-0.2-0.1-0.5-0.1-0.7-0.1c-0.5,0-0.8,0.1-1,0.3c-0.2,0.2-0.3,0.5-0.3,0.8
		c0,0.2,0.1,0.4,0.2,0.5c0.1,0.1,0.3,0.3,0.5,0.4c0.2,0.1,0.5,0.2,0.8,0.3c0.3,0.1,0.6,0.2,0.9,0.3c0.3,0.1,0.6,0.2,0.9,0.4
		c0.3,0.1,0.5,0.3,0.8,0.5c0.2,0.2,0.4,0.5,0.5,0.8c0.1,0.3,0.2,0.7,0.2,1.1c0,0.5-0.1,1-0.3,1.4c-0.2,0.4-0.4,0.8-0.8,1.1
		c-0.3,0.3-0.7,0.6-1.2,0.8c-0.5,0.2-1,0.3-1.6,0.3c-0.3,0-0.7,0-1-0.1c-0.3-0.1-0.7-0.2-1-0.3c-0.3-0.1-0.6-0.3-0.9-0.4
		c-0.3-0.2-0.5-0.4-0.7-0.6l0.7-1.2c0.1-0.1,0.1-0.2,0.2-0.2c0.1-0.1,0.2-0.1,0.3-0.1c0.1,0,0.3,0,0.4,0.1c0.1,0.1,0.3,0.2,0.5,0.3
		c0.2,0.1,0.4,0.2,0.7,0.3c0.2,0.1,0.5,0.1,0.9,0.1c0.5,0,0.8-0.1,1.1-0.3c0.3-0.2,0.4-0.5,0.4-0.9c0-0.3-0.1-0.5-0.2-0.6
		c-0.1-0.2-0.3-0.3-0.5-0.4c-0.2-0.1-0.5-0.2-0.8-0.3c-0.3-0.1-0.6-0.2-0.9-0.3s-0.6-0.2-0.9-0.4c-0.3-0.1-0.5-0.3-0.8-0.6
		s-0.4-0.5-0.5-0.9c-0.1-0.3-0.2-0.8-0.2-1.3c0-0.4,0.1-0.8,0.2-1.2c0.2-0.4,0.4-0.7,0.7-1c0.3-0.3,0.7-0.5,1.2-0.7
		c0.5-0.2,1-0.3,1.6-0.3c0.3,0,0.7,0,1,0.1c0.3,0.1,0.6,0.1,0.9,0.2c0.3,0.1,0.5,0.2,0.8,0.4c0.2,0.1,0.5,0.3,0.7,0.5L341.7,222.7z"
		/>
	<path id="XMLID_75_" class="st0" d="M355,225.9c0,0.8-0.1,1.5-0.4,2.2c-0.3,0.7-0.6,1.2-1.1,1.7c-0.5,0.5-1.1,0.9-1.8,1.1
		c-0.7,0.3-1.5,0.4-2.3,0.4h-4.2v-10.8h4.2c0.8,0,1.6,0.1,2.3,0.4c0.7,0.3,1.3,0.6,1.8,1.1c0.5,0.5,0.9,1,1.1,1.7
		C354.8,224.5,355,225.2,355,225.9z M352.4,225.9c0-0.5-0.1-1-0.2-1.4c-0.1-0.4-0.3-0.8-0.6-1.1c-0.3-0.3-0.6-0.5-0.9-0.7
		c-0.4-0.2-0.8-0.2-1.3-0.2h-1.7v6.9h1.7c0.5,0,0.9-0.1,1.3-0.2c0.4-0.2,0.7-0.4,0.9-0.7c0.3-0.3,0.5-0.7,0.6-1.1
		C352.3,227,352.4,226.5,352.4,225.9z"/>
	<path id="XMLID_78_" class="st0" d="M364.6,220.6v1.9h-4.4v2.5h3.4v1.8h-3.4v2.6h4.4v1.9h-6.9v-10.8H364.6z"/>
	<path id="XMLID_80_" class="st0" d="M374.3,229.3h4v2h-6.5v-10.8h2.5V229.3z"/>
	<path id="XMLID_82_" class="st0" d="M391,231.3H389c-0.2,0-0.4-0.1-0.5-0.2s-0.2-0.2-0.3-0.4l-0.6-1.9h-4.1l-0.6,1.9
		c0,0.1-0.1,0.3-0.3,0.4c-0.1,0.1-0.3,0.2-0.5,0.2h-2l4.2-10.8h2.6L391,231.3z M384.1,227.2h2.9l-1-2.9c-0.1-0.2-0.1-0.4-0.2-0.7
		c-0.1-0.3-0.2-0.5-0.3-0.8c-0.1,0.3-0.2,0.6-0.2,0.8c-0.1,0.3-0.2,0.5-0.2,0.7L384.1,227.2z"/>
	<path id="XMLID_85_" class="st0" d="M403.4,227c0.1,0.2,0.2,0.4,0.3,0.6c0.1-0.2,0.2-0.4,0.3-0.6c0.1-0.2,0.2-0.4,0.3-0.6l2.8-5.4
		c0-0.1,0.1-0.2,0.2-0.2c0.1-0.1,0.1-0.1,0.2-0.1c0.1,0,0.1,0,0.2,0c0.1,0,0.2,0,0.3,0h1.9v10.8h-2.2v-6.2c0-0.3,0-0.6,0-1l-2.9,5.5
		c-0.1,0.2-0.2,0.3-0.4,0.4c-0.1,0.1-0.3,0.1-0.5,0.1h-0.3c-0.2,0-0.4,0-0.5-0.1c-0.1-0.1-0.3-0.2-0.4-0.4l-2.9-5.5
		c0,0.2,0,0.3,0,0.5c0,0.2,0,0.3,0,0.5v6.2h-2.2v-10.8h1.9c0.1,0,0.2,0,0.3,0c0.1,0,0.2,0,0.2,0c0.1,0,0.1,0.1,0.2,0.1
		c0.1,0.1,0.1,0.1,0.2,0.2l2.8,5.5C403.3,226.6,403.4,226.8,403.4,227z"/>
	<path id="XMLID_87_" class="st0" d="M423.7,225.9c0,0.8-0.1,1.5-0.4,2.2c-0.3,0.7-0.6,1.3-1.1,1.7c-0.5,0.5-1.1,0.9-1.8,1.2
		c-0.7,0.3-1.4,0.4-2.3,0.4c-0.8,0-1.6-0.1-2.3-0.4c-0.7-0.3-1.3-0.7-1.8-1.2c-0.5-0.5-0.9-1.1-1.1-1.7c-0.3-0.7-0.4-1.4-0.4-2.2
		c0-0.8,0.1-1.5,0.4-2.2c0.3-0.7,0.6-1.3,1.1-1.7c0.5-0.5,1.1-0.9,1.8-1.2c0.7-0.3,1.5-0.4,2.3-0.4c0.8,0,1.6,0.1,2.3,0.4
		c0.7,0.3,1.3,0.7,1.8,1.2c0.5,0.5,0.9,1.1,1.1,1.7C423.5,224.4,423.7,225.2,423.7,225.9z M421.1,225.9c0-0.5-0.1-1-0.2-1.4
		c-0.1-0.4-0.3-0.8-0.6-1.1c-0.3-0.3-0.6-0.5-0.9-0.7c-0.4-0.2-0.8-0.2-1.3-0.2c-0.5,0-0.9,0.1-1.3,0.2c-0.4,0.2-0.7,0.4-1,0.7
		c-0.3,0.3-0.5,0.7-0.6,1.1c-0.1,0.4-0.2,0.9-0.2,1.4c0,0.5,0.1,1,0.2,1.4c0.1,0.4,0.3,0.8,0.6,1.1c0.3,0.3,0.6,0.5,1,0.7
		c0.4,0.2,0.8,0.2,1.3,0.2c0.5,0,0.9-0.1,1.3-0.2c0.4-0.2,0.7-0.4,0.9-0.7c0.3-0.3,0.5-0.7,0.6-1.1C421,227,421.1,226.5,421.1,225.9
		z"/>
	<path id="XMLID_90_" class="st0" d="M427.9,220.6c0.1,0,0.1,0,0.2,0.1c0.1,0,0.1,0.1,0.2,0.1c0.1,0,0.1,0.1,0.2,0.2l5.1,6.5
		c0-0.2,0-0.4,0-0.6c0-0.2,0-0.4,0-0.6v-5.7h2.2v10.8h-1.3c-0.2,0-0.4,0-0.5-0.1c-0.1-0.1-0.3-0.2-0.4-0.3l-5.1-6.4
		c0,0.2,0,0.4,0,0.6c0,0.2,0,0.3,0,0.5v5.8h-2.2v-10.8h1.3C427.8,220.6,427.8,220.6,427.9,220.6z"/>
	<path id="XMLID_92_" class="st0" d="M446.8,220.6v2h-3v8.8h-2.5v-8.8h-3v-2H446.8z"/>
	<path id="XMLID_94_" class="st0" d="M458.2,231.3h-1.9c-0.2,0-0.4-0.1-0.5-0.2s-0.2-0.2-0.3-0.4l-0.6-1.9h-4.1l-0.6,1.9
		c0,0.1-0.1,0.3-0.3,0.4c-0.1,0.1-0.3,0.2-0.5,0.2h-2l4.2-10.8h2.6L458.2,231.3z M451.2,227.2h2.9l-1-2.9c-0.1-0.2-0.1-0.4-0.2-0.7
		c-0.1-0.3-0.2-0.5-0.3-0.8c-0.1,0.3-0.2,0.6-0.2,0.8c-0.1,0.3-0.2,0.5-0.2,0.7L451.2,227.2z"/>
	<path id="XMLID_97_" class="st0" d="M462.1,220.6c0.1,0,0.1,0,0.2,0.1c0.1,0,0.1,0.1,0.2,0.1c0.1,0,0.1,0.1,0.2,0.2l5.1,6.5
		c0-0.2,0-0.4,0-0.6c0-0.2,0-0.4,0-0.6v-5.7h2.2v10.8h-1.3c-0.2,0-0.4,0-0.5-0.1c-0.1-0.1-0.3-0.2-0.4-0.3l-5.1-6.4
		c0,0.2,0,0.4,0,0.6c0,0.2,0,0.3,0,0.5v5.8h-2.2v-10.8h1.3C461.9,220.6,462,220.6,462.1,220.6z M466.2,218.5c0.1,0,0.2,0,0.3-0.1
		c0.1-0.1,0.1-0.2,0.1-0.3h1.2c0,0.3,0,0.5-0.1,0.7c-0.1,0.2-0.2,0.4-0.3,0.6c-0.1,0.2-0.3,0.3-0.5,0.4c-0.2,0.1-0.4,0.1-0.6,0.1
		c-0.2,0-0.4,0-0.5-0.1c-0.2,0-0.3-0.1-0.5-0.2c-0.2-0.1-0.3-0.1-0.4-0.2c-0.1,0-0.2-0.1-0.3-0.1c-0.1,0-0.2,0-0.3,0.1
		c-0.1,0.1-0.1,0.2-0.1,0.3h-1.3c0-0.3,0-0.5,0.1-0.7c0.1-0.2,0.2-0.4,0.3-0.6c0.1-0.2,0.3-0.3,0.5-0.4c0.2-0.1,0.4-0.1,0.6-0.1
		c0.2,0,0.4,0,0.5,0.1c0.2,0,0.3,0.1,0.5,0.1c0.2,0.1,0.3,0.1,0.4,0.1C466,218.5,466.1,218.5,466.2,218.5z"/>
	<path id="XMLID_100_" class="st0" d="M483.2,231.3h-1.9c-0.2,0-0.4-0.1-0.5-0.2c-0.1-0.1-0.2-0.2-0.3-0.4l-0.6-1.9h-4.1l-0.6,1.9
		c0,0.1-0.1,0.3-0.3,0.4c-0.1,0.1-0.3,0.2-0.5,0.2h-2l4.2-10.8h2.6L483.2,231.3z M476.3,227.2h2.9l-1-2.9c-0.1-0.2-0.1-0.4-0.2-0.7
		c-0.1-0.3-0.2-0.5-0.3-0.8c-0.1,0.3-0.2,0.6-0.2,0.8c-0.1,0.3-0.2,0.5-0.2,0.7L476.3,227.2z"/>
</g>
</svg>
