<svg role="img" viewBox="0 0 24 24" xmlns="http://www.w3.org/2000/svg">
  <defs>
    <!-- Simple Icons: https://simpleicons.org/ -->
    <symbol id="facebook"><path d="M24 12.073c0-6.627-5.373-12-12-12s-12 5.373-12 12c0 5.99 4.388 10.954 10.125 11.854v-8.385H7.078v-3.47h3.047V9.43c0-3.007 1.792-4.669 4.533-4.669 1.312 0 2.686.235 2.686.235v2.953H15.83c-1.491 0-1.956.925-1.956 1.874v2.25h3.328l-.532 3.47h-2.796v8.385C19.612 23.027 24 18.062 24 12.073z"/></symbol>
    <symbol id="deezer"><path d="M18.81 4.16v3.03H24V4.16h-5.19zM6.27 8.38v3.027h5.189V8.38h-5.19zm12.54 0v3.027H24V8.38h-5.19zM6.27 12.594v3.027h5.189v-3.027h-5.19zm6.271 0v3.027h5.19v-3.027h-5.19zm6.27 0v3.027H24v-3.027h-5.19zM0 16.81v3.029h5.19v-3.03H0zm6.27 0v3.029h5.189v-3.03h-5.19zm6.271 0v3.029h5.19v-3.03h-5.19zm6.27 0v3.029H24v-3.03h-5.19Z"/></symbol>
    <symbol id="google-podcasts"><path d="M1.503 9.678c-.83 0-1.5.67-1.5 1.5v1.63a1.5 1.5 0 103 0v-1.63c0-.83-.67-1.5-1.5-1.5zm20.994 0c-.83 0-1.5.67-1.5 1.5v1.63a1.5 1.5 0 103 0v-1.63c0-.83-.67-1.5-1.5-1.5zM6.68 14.587c-.83 0-1.5.67-1.5 1.5v1.63a1.5 1.5 0 103 0v-1.62c0-.83-.67-1.5-1.5-1.5zm0-9.817c-.83 0-1.5.67-1.5 1.5v5.357a1.5 1.5 0 003 0V6.258c0-.83-.67-1.5-1.5-1.5zm10.638 0c-.83 0-1.5.67-1.5 1.5v1.64a1.5 1.5 0 003 0V6.27c0-.83-.67-1.5-1.5-1.5zM12 0c-.83 0-1.5.67-1.5 1.5v1.63a1.5 1.5 0 103 0V1.5c0-.83-.67-1.499-1.5-1.499zm0 19.355c-.83 0-1.5.67-1.5 1.5v1.64a1.5 1.5 0 103 .01v-1.64c0-.82-.67-1.5-1.5-1.5zm5.319-8.457c-.83 0-1.5.68-1.5 1.5v5.328a1.5 1.5 0 003 0v-5.329c0-.83-.67-1.5-1.5-1.5zM12 6.128c-.83 0-1.5.68-1.5 1.5v8.728a1.5 1.5 0 003 0V7.638c0-.83-.67-1.5-1.5-1.5z"/></symbol>
    <symbol id="rss"><path d="M19.199 24C19.199 13.467 10.533 4.8 0 4.8V0c13.165 0 24 10.835 24 24h-4.801zM3.291 17.415c1.814 0 3.293 1.479 3.293 3.295 0 1.813-1.485 3.29-3.301 3.29C1.47 24 0 22.526 0 20.71s1.475-3.294 3.291-3.295zM15.909 24h-4.665c0-6.169-5.075-11.245-11.244-11.245V8.09c8.727 0 15.909 7.184 15.909 15.91z"/></symbol>
    <symbol id="instagram"><path d="M12 0C8.74 0 8.333.015 7.053.072 5.775.132 4.905.333 4.14.63c-.789.306-1.459.717-2.126 1.384S.935 3.35.63 4.14C.333 4.905.131 5.775.072 7.053.012 8.333 0 8.74 0 12s.015 3.667.072 4.947c.06 1.277.261 2.148.558 2.913.306.788.717 1.459 1.384 2.126.667.666 1.336 1.079 2.126 1.384.766.296 1.636.499 2.913.558C8.333 23.988 8.74 24 12 24s3.667-.015 4.947-.072c1.277-.06 2.148-.262 2.913-.558.788-.306 1.459-.718 2.126-1.384.666-.667 1.079-1.335 1.384-2.126.296-.765.499-1.636.558-2.913.06-1.28.072-1.687.072-4.947s-.015-3.667-.072-4.947c-.06-1.277-.262-2.149-.558-2.913-.306-.789-.718-1.459-1.384-2.126C21.319 1.347 20.651.935 19.86.63c-.765-.297-1.636-.499-2.913-.558C15.667.012 15.26 0 12 0zm0 2.16c3.203 0 3.585.016 4.85.071 1.17.055 1.805.249 2.227.415.562.217.96.477 1.382.896.419.42.679.819.896 1.381.164.422.36 1.057.413 2.227.057 1.266.07 1.646.07 4.85s-.015 3.585-.074 4.85c-.061 1.17-.256 1.805-.421 2.227-.224.562-.479.96-.899 1.382-.419.419-.824.679-1.38.896-.42.164-1.065.36-2.235.413-1.274.057-1.649.07-4.859.07-3.211 0-3.586-.015-4.859-.074-1.171-.061-1.816-.256-2.236-.421-.569-.224-.96-.479-1.379-.899-.421-.419-.69-.824-.9-1.38-.165-.42-.359-1.065-.42-2.235-.045-1.26-.061-1.649-.061-4.844 0-3.196.016-3.586.061-4.861.061-1.17.255-1.814.42-2.234.21-.57.479-.96.9-1.381.419-.419.81-.689 1.379-.898.42-.166 1.051-.361 2.221-.421 1.275-.045 1.65-.06 4.859-.06l.045.03zm0 3.678c-3.405 0-6.162 2.76-6.162 6.162 0 3.405 2.76 6.162 6.162 6.162 3.405 0 6.162-2.76 6.162-6.162 0-3.405-2.76-6.162-6.162-6.162zM12 16c-2.21 0-4-1.79-4-4s1.79-4 4-4 4 1.79 4 4-1.79 4-4 4zm7.846-10.405c0 .795-.646 1.44-1.44 1.44-.795 0-1.44-.646-1.44-1.44 0-.794.646-1.439 1.44-1.439.793-.001 1.44.645 1.44 1.439z"/></symbol>
    <symbol id="spotify">
      <path d="M12 0C5.4 0 0 5.4 0 12s5.4 12 12 12 12-5.4 12-12S18.66 0 12 0zm5.521 17.34c-.24.359-.66.48-1.021.24-2.82-1.74-6.36-2.101-10.561-1.141-.418.122-.779-.179-.899-.539-.12-.421.18-.78.54-.9 4.56-1.021 8.52-.6 11.64 1.32.42.18.479.659.301 1.02zm1.44-3.3c-.301.42-.841.6-1.262.3-3.239-1.98-8.159-2.58-11.939-1.38-.479.12-1.02-.12-1.14-.6-.12-.48.12-1.021.6-1.141C9.6 9.9 15 10.561 18.72 12.84c.361.181.54.78.241 1.2zm.12-3.36C15.24 8.4 8.82 8.16 5.16 9.301c-.6.179-1.2-.181-1.38-.721-.18-.601.18-1.2.72-1.381 4.26-1.26 11.28-1.02 15.721 1.621.539.3.719 1.02.419 1.56-.299.421-1.02.599-1.559.3z"/>
    </symbol>
	<symbol id="yt">
	<path d="M23.498 6.186a3.016 3.016 0 0 0-2.122-2.136C19.505 3.545 12 3.545 12 3.545s-7.505 0-9.377.505A3.017 3.017 0 0 0 .502 6.186C0 8.07 0 12 0 12s0 3.93.502 5.814a3.016 3.016 0 0 0 2.122 2.136c1.871.505 9.376.505 9.376.505s7.505 0 9.377-.505a3.015 3.015 0 0 0 2.122-2.136C24 15.93 24 12 24 12s0-3.93-.502-5.814zM9.545 15.568V8.432L15.818 12l-6.273 3.568z"/>
	</symbol>
	<symbol id="mailchimp">
	<path d="M11.267 0C6.791-.015-1.82 10.246 1.397 12.964l.79.669a3.88 3.88 0 0 0-.22 1.792c.084.84.518 1.644 1.22 2.266.666.59 1.542.964 2.392.964 1.406 3.24 4.62 5.228 8.386 5.34 4.04.12 7.433-1.776 8.854-5.182.093-.24.488-1.316.488-2.267 0-.956-.54-1.352-.885-1.352-.01-.037-.078-.286-.172-.586-.093-.3-.19-.51-.19-.51.375-.563.382-1.065.332-1.35-.053-.353-.2-.653-.496-.964-.296-.311-.902-.63-1.753-.868l-.446-.124c-.002-.019-.024-1.053-.043-1.497-.014-.32-.042-.822-.197-1.315-.186-.668-.508-1.253-.911-1.627 1.112-1.152 1.806-2.422 1.804-3.511-.003-2.095-2.576-2.729-5.746-1.416l-.672.285A678.22 678.22 0 0 0 12.7.504C12.304.159 11.817.002 11.267 0zm.073.873c.166 0 .322.019.465.058.297.084 1.28 1.224 1.28 1.224s-1.826 1.013-3.52 2.426c-2.28 1.757-4.005 4.311-5.037 7.082-.811.158-1.526.618-1.963 1.253-.261-.218-.748-.64-.834-.804-.698-1.326.761-3.902 1.781-5.357C5.834 3.44 9.37.867 11.34.873zm3.286 3.273c.04-.002.06.05.028.074-.143.11-.299.26-.413.414a.04.04 0 0 0 .031.064c.659.004 1.587.235 2.192.574.041.023.012.103-.034.092-.915-.21-2.414-.369-3.97.01-1.39.34-2.45.863-3.224 1.426-.04.028-.086-.023-.055-.06.896-1.035 1.999-1.935 2.987-2.44.034-.018.07.019.052.052-.079.143-.23.447-.278.678-.007.035.032.063.062.042.615-.42 1.684-.868 2.622-.926zm3.023 3.205l.056.001a.896.896 0 0 1 .456.146c.534.355.61 1.216.638 1.845.015.36.059 1.229.074 1.478.034.571.184.651.487.751.17.057.33.098.563.164.706.198 1.125.4 1.39.658.157.162.23.333.253.497.083.608-.472 1.36-1.942 2.041-1.607.746-3.557.935-4.904.785l-.471-.053c-1.078-.145-1.693 1.247-1.046 2.201.417.615 1.552 1.015 2.688 1.015 2.604 0 4.605-1.111 5.35-2.072a.987.987 0 0 0 .06-.085c.036-.055.006-.085-.04-.054-.608.416-3.31 2.069-6.2 1.571 0 0-.351-.057-.672-.182-.255-.1-.788-.344-.853-.891 2.333.72 3.801.039 3.801.039a.072.072 0 0 0 .042-.072.067.067 0 0 0-.074-.06s-1.911.283-3.718-.378c.197-.64.72-.408 1.51-.345a11.045 11.045 0 0 0 3.647-.394c.818-.234 1.892-.697 2.727-1.356.281.618.38 1.299.38 1.299s.219-.04.4.073c.173.106.299.326.213.895-.176 1.063-.628 1.926-1.387 2.72a5.714 5.714 0 0 1-1.666 1.244c-.34.18-.704.334-1.087.46-2.863.935-5.794-.093-6.739-2.3a3.545 3.545 0 0 1-.189-.522c-.403-1.455-.06-3.2 1.008-4.299.065-.07.132-.153.132-.256 0-.087-.055-.179-.102-.243-.374-.543-1.669-1.466-1.409-3.254.187-1.284 1.31-2.189 2.357-2.135.089.004.177.01.266.015.453.027.85.085 1.223.1.625.028 1.187-.063 1.853-.618.225-.187.405-.35.71-.401.028-.005.092-.028.215-.028zm.022 2.18a.42.42 0 0 0-.06.005c-.335.054-.347.468-.228 1.04.068.32.187.595.32.765.175-.02.343-.022.498 0 .089-.205.104-.557.024-.942-.112-.535-.261-.872-.554-.868zm-3.66 1.546a1.724 1.724 0 0 0-1.016.326c-.16.117-.311.28-.29.378.008.032.031.056.088.063.131.015.592-.217 1.122-.25.374-.023.684.094.923.2.239.104.386.173.443.113.037-.038.026-.11-.031-.204-.118-.192-.36-.387-.618-.497a1.601 1.601 0 0 0-.621-.129zm4.082.81c-.171-.003-.313.186-.317.42-.004.236.131.43.303.432.172.003.314-.185.318-.42.004-.236-.132-.429-.304-.432zm-3.58.172c-.05 0-.102.002-.155.008-.311.05-.483.152-.593.247-.094.082-.152.173-.152.237a.075.075 0 0 0 .075.076c.07 0 .228-.063.228-.063a1.98 1.98 0 0 1 1.001-.104c.157.018.23.027.265-.026.01-.016.022-.049-.01-.1-.063-.103-.311-.269-.66-.275zm2.26.4c-.127 0-.235.051-.283.148-.075.154.035.363.246.466.21.104.443.063.52-.09.075-.155-.035-.364-.246-.467a.542.542 0 0 0-.237-.058zm-11.635.024c.048 0 .098 0 .149.003.73.04 1.806.6 2.052 2.19.217 1.41-.128 2.843-1.449 3.069-.123.02-.248.029-.374.026-1.22-.033-2.539-1.132-2.67-2.435-.145-1.44.591-2.548 1.894-2.811.117-.024.252-.04.398-.042zm-.07.927a1.144 1.144 0 0 0-.847.364c-.38.418-.439.988-.366 1.19.027.073.07.094.1.098.064.008.16-.039.22-.2a1.2 1.2 0 0 0 .017-.052 1.58 1.58 0 0 1 .157-.37.689.689 0 0 1 .955-.199c.266.174.369.5.255.81-.058.161-.154.469-.133.721.043.511.357.717.64.738.274.01.466-.143.515-.256.029-.067.005-.107-.011-.125-.043-.053-.113-.037-.18-.021a.638.638 0 0 1-.16.022.347.347 0 0 1-.294-.148c-.078-.12-.073-.3.013-.504.011-.028.025-.058.04-.092.138-.308.368-.825.11-1.317-.195-.37-.513-.602-.894-.65a1.135 1.135 0 0 0-.138-.01z"/>
	</symbol>
  </defs>
</svg>